<svg xmlns="http://www.w3.org/2000/svg" viewBox="0 0 1281.03 438.82"><defs><style>.cls-1,.cls-4,.cls-7{fill:#fff;}.cls-1{stroke:#231f20;}.cls-1,.cls-3,.cls-4,.cls-5,.cls-9{stroke-miterlimit:10;}.cls-2,.cls-3,.cls-9{fill:#231f20;}.cls-2{opacity:0.11;}.cls-3,.cls-5{stroke:#989898;}.cls-4{stroke:#010101;stroke-width:4px;}.cls-5{fill:none;stroke-width:3px;}.cls-6{fill:#ccc;}.cls-8{fill:#010101;}.cls-9{font-size:363px;stroke:#25a049;stroke-width:0.25px;font-family:ChalkboardSE-Bold, Chalkboard SE;font-weight:700;}.cls-10{letter-spacing:-0.01em;}.cls-11{letter-spacing:0.02em;}.cls-12{letter-spacing:0em;}.cls-13{fill:#999b9e;}</style></defs><g id="Layer_5" data-name="Layer 5"><rect class="cls-1" x="3.19" width="1277.84" height="438.82"/></g><g id="Layer_1" data-name="Layer 1"><path class="cls-2" d="M139.93,59.65c-9,1.69-17.75,3.45-26.4,6.54a148.23,148.23,0,0,0-17,7.32A143,143,0,0,0,72.76,88.86,93.61,93.61,0,0,0,56,106.17a74.23,74.23,0,0,0-9.65,17.06,62.67,62.67,0,0,0-4,15.46,43.4,43.4,0,0,0-.36,9.67,40.08,40.08,0,0,0,1.86,9.78c3.71,13.39,13.35,24.16,24.38,32.21,11.2,8.17,23.66,14.66,36.09,20.75,5.49,2.69,11,5.3,16.52,8a396.43,396.43,0,0,1,42.53,24.66A231.7,231.7,0,0,1,184,258.55l6.06,5.23a83.93,83.93,0,0,1,10.21,11.11L199,273l3.66,5.81-1.12-2,3.15,6-1-2a27.59,27.59,0,0,1,2.22,6,24.54,24.54,0,0,1,1.18,5.94l-.13-4.49.17,8.4.19-4.51-.72,8.23,3.22-17.05-6.1,23.88,6.47-16.27-11.8,22.93,10-14.25-13.32,17,11.48-12.8-15.24,15.41,13-11.37-21.41,16.26,3.81-2.33c-5.2,2.9-10.36,5.75-15.81,8.19-5.08,2.29-10.21,4.43-15.35,6.58l2.11-.86c-8.24,3.26-16.64,6.22-24.81,9.64l-15.29,7.08q-15.47,6.92-31,13.7c-15.66,6.88-31.34,13.74-46.8,21.07Q24.29,394.46,9.2,402.46-5.72,410.38-20,419.39c-3.83,2.31,5.21,4.68,5.59,4.81q6.12,1.89,12.36,3.32a13.74,13.74,0,0,0,6.71.67q14.25-8.74,29-16.55l15.12-7.82c18-9.16,36.39-17.58,54.68-26.15,15.8-7.4,31.65-14.69,47.07-22.85,7.55-4,15.13-7.93,22.46-12.32a156.76,156.76,0,0,0,19.25-13.14l4.75-4.12q4.41-4.47,8.37-9.33c6.28-8.73,11-19,10.4-30-.48-9.06-4.33-17.76-9.49-25.1a85.11,85.11,0,0,0-10-11.44A180.63,180.63,0,0,0,178,233.75c-6.76-5.1-13.91-9.73-21-14.43q-13.47-8.73-27.44-16.63l-15.28-7.8a122.37,122.37,0,0,1-18.65-12.08,56.54,56.54,0,0,1-6-5.42,81.92,81.92,0,0,1-9.43-8.32l.89.89-4.3-4.57.77,1c-1.74-2.22-3.39-4.51-4.93-6.88a18.64,18.64,0,0,1-3-5.95l-1.32-3.68a64.54,64.54,0,0,1-.75-7.6l-.16,1.27a83.36,83.36,0,0,1,1.39-8.91l-.42,1.2a93.4,93.4,0,0,1,3.46-9L71.16,128A92.44,92.44,0,0,1,78,117.16a118.93,118.93,0,0,1,8.65-9.86l-.94.86,6.44-5.45-1,.79,7-5.13-1,.73,7.53-4.8L103.6,95a133.59,133.59,0,0,1,14.23-7.32,107.17,107.17,0,0,1,11.72-4.49,90.46,90.46,0,0,1,12.23-3.52q7.92-1.28,15.9-2.23c4.29-.56-2.38-6.16-2.8-6.56q-4.55-4.14-9.38-7.93A12.62,12.62,0,0,0,139.93,59.65Z"/><path class="cls-2" d="M141.63,51.06q-8.91,1.48-17.65,3.81a106,106,0,0,0-13.12,4.57,133.38,133.38,0,0,0-28.2,15C75.53,79.53,68.55,85.1,62.8,91.74A88.5,88.5,0,0,0,51.71,108a62.57,62.57,0,0,0-7.63,28.05,49.83,49.83,0,0,0,.85,10.32,53.81,53.81,0,0,0,4,11.9c3.24,7.45,8.78,13.67,14.55,19.25a95.62,95.62,0,0,0,12.38,9.6c6.59,4.15,13.28,8.19,20.19,11.81s13.71,6.7,20.63,9.95A378.94,378.94,0,0,1,152.4,228c9.4,5.72,18.64,11.73,27.55,18.21a144.09,144.09,0,0,1,12.59,10.26,82.34,82.34,0,0,1,10.18,11.1l-.95-1.25a55.59,55.59,0,0,1,5.37,9.85,40.71,40.71,0,0,1,2.34,10l-.06-2.89v6.81l.14-2.9-.78,6.6,1.25-6.91-1.92,7.65,2.7-7.86-4.18,11.1,3.5-7.67-5.79,11.16,4.24-7.3-7.15,10.5,5-6.94L190.63,312.3l7.21-5.39a154,154,0,0,1-28.47,16.15l3.19-1.41c-8.27,3.52-16.58,6.91-24.93,10.23-3.77,1.5-7.58,2.92-11.31,4.48-8.38,3.5-16.53,7.56-24.83,11.24-20.77,9.22-41.67,18.18-62.3,27.72-10.34,4.78-20.59,9.73-30.72,14.95q-7.6,3.76-15,8-11.14,6-21.82,12.83-1.39.91-.21,2.1a11.32,11.32,0,0,0,5.84,1.69Q-7,415.7-1.24,416a11.2,11.2,0,0,0,6.05-.48c12.1-7.1,24.27-14,36.74-20.45C54.22,388.56,67,382.3,79.91,376.17c23.19-11,46.61-21.67,69.4-33.52,10.13-5.27,20.18-10.64,29.88-16.66,4-2.48,7.91-5.08,11.68-7.91l4.25-3.23,4-2.72c2.8-2.15,5.15-5.05,7.56-7.6a15.34,15.34,0,0,0,3.86-5l1.86-3.78,1.64-3.88a16.13,16.13,0,0,0,1.28-6.83,17.46,17.46,0,0,0,.2-6.07,27.72,27.72,0,0,0-1-6.33c-4.84-17.42-19.33-30.31-33.35-40.66-4.56-3.37-9.26-6.53-14-9.71q-8.29-5.73-17-10.82l-13.95-8.16-15.66-7.74c-3.08-1.54-6.15-3.07-9.22-4.62a135.24,135.24,0,0,1-14.91-8.26c-8.32-5.56-16.78-11-23.63-18.35A35.85,35.85,0,0,1,67,156.83l-2.89-5.49a34.51,34.51,0,0,1-2.54-13.12c0-7.71,2.56-15,6.27-21.66a63.88,63.88,0,0,1,7.9-10.83A97.64,97.64,0,0,1,85.87,95.47a109.32,109.32,0,0,1,16.23-11,138.73,138.73,0,0,1,18.66-9c5.37-2.09,10.84-4,16.38-5.53,8.19-2.33,16.53-3.16,24.94-4.21,4.63-.57-4.16-6.23-3.84-6q-5.16-3.36-10.56-6.3A12.73,12.73,0,0,0,141.63,51.06Z"/><path class="cls-2" d="M145.16,58.35A170.78,170.78,0,0,0,127.55,62l-8.8,2.81A136.7,136.7,0,0,0,93.83,76.48C83.45,82.65,73.5,90.29,65.52,99.42A76,76,0,0,0,49,130.66a49.57,49.57,0,0,0-1.13,19A41.45,41.45,0,0,0,50,159.42a45,45,0,0,0,4.69,9.48c7.41,12.45,19.5,21.1,31.75,28.35,12.63,7.47,26.11,13.37,39.22,19.93a395.66,395.66,0,0,1,42.52,24.67,243.38,243.38,0,0,1,20.59,14.77,108,108,0,0,1,13.9,13.48,30.71,30.71,0,0,1,4.84,6.71,42.18,42.18,0,0,1,3.61,8l-.71-2.17,1.77,6.22-.58-2.2a21.07,21.07,0,0,1,.7,5.91,18.91,18.91,0,0,1-.43,5.71l.92-4.25-2,7.91,3.47-9.89-5.14,13.21,4.38-9.45-6.71,13,8.67-13.66L200.49,315l6.88-7.14-10.67,9.87,7.62-6.3-11.71,8.83,3.26-2.36-7.69,4.83,3.49-2c-6,3.25-11.89,6.3-18.17,9-6.05,2.62-12.16,5.12-18.26,7.61l1.93-.78c-6.34,2.49-12.72,4.88-19.06,7.39q-15.26,7.2-30.72,13.93L84,368.12C68.34,375,52.73,382,37.33,389.48Q25.78,395,14.51,401q-14.94,7.92-29.24,16.92c-3.75,2.27,5.1,4.36,5.29,4.41Q-3.76,423.8,2,424.79a11.71,11.71,0,0,0,6.18.22q14.29-8.75,29.1-16.57,15.11-8,30.5-15.37c20.77-10.06,41.8-19.57,62.65-29.48,14.35-6.81,28.64-13.83,42.56-21.5a208.79,208.79,0,0,0,22-13.66c7.93-5.76,15.66-13,20.73-21.5,5.4-9.06,7.66-19.58,5.51-30-3-14.65-13-26.25-23.7-36.13-8.25-7.63-17.45-14-26.71-20.31q-9.94-7-20.41-13.18a274.26,274.26,0,0,0-29.26-15.85,170.63,170.63,0,0,1-20.53-12.54A95.38,95.38,0,0,0,91.12,172q-4.31-3.28-8.42-6.79c-4.58-4.27-8.93-9.45-11-15.47a37,37,0,0,1-1.46-8.28,42.55,42.55,0,0,1,1-8.41l-.33,1.19,1.7-5.4L72.17,130l2.2-5.39-.52,1.12,2.86-5.27-.6,1.08,3.31-5.29-.67,1a107.43,107.43,0,0,1,10.62-12.42c6.42-6.24,14.38-11.11,22.22-15.32a143.43,143.43,0,0,1,23.1-9.87,96.08,96.08,0,0,1,12.47-3.49q8.09-1.32,16.24-2.18c4.38-.52-3-6.08-3.1-6.15q-4.63-3.6-9.54-6.83A11.68,11.68,0,0,0,145.16,58.35Z"/><path class="cls-2" d="M145.54,60.32a61.82,61.82,0,0,0-18.08,4.14l-8.95,3c-3.18,1.27-6.38,2.57-9.51,4A108.14,108.14,0,0,0,96.5,77.9a104.4,104.4,0,0,0-11.78,7.52C77.47,90.8,70.2,96.7,64.53,103.77c-7.78,9.7-13.92,20.55-16.54,32.76a54.54,54.54,0,0,0,.21,24.25c7.17,29.68,37.5,44.52,62.77,56.41,6.76,3.18,13.67,6.08,20.37,9.38a377,377,0,0,1,42.57,24.54c5.88,3.91,11.7,7.9,17.28,12.22a105.78,105.78,0,0,1,9.27,7.76,81,81,0,0,1,10.06,11.12l-.81-1.3,3.16,5.24-.73-1.32,2.67,5.33-.65-1.34a41.12,41.12,0,0,1,2.66,10.23,15.11,15.11,0,0,1,.12,4A16.94,16.94,0,0,1,216,309l.69-2.2-2.12,5.91.87-2L212.55,316l2.79-4.2c-12.26,16.07-27.59,20-44.35,25.94l1.09-.38c-8,2.59-16,5.12-23.92,7.82q-5.7,1.93-11.36,3.94-15.24,6.88-30.6,13.51c-20.8,9-41.71,17.84-62.23,27.52q-15.43,7.22-30.49,15.23t-29.26,17c-1,.6-2,2.13-1.3,3.33.48.89,3.5,2.33,4.46,1.74l14.38-8.76q11-6.45,22.36-12.16C36.78,400,49.64,393.88,62.63,388c23.3-10.48,46.87-20.36,70.17-30.81a77,77,0,0,1,10.59-4.5q4.38-1.59,8.76-3.14,6-2.11,11.95-4.16c7.65-2.63,15.29-5.28,22.85-8.17,8.28-3.17,16.48-6.86,23.37-12.53a33,33,0,0,0,4.39-4,54.41,54.41,0,0,0,4.86-6.72,25,25,0,0,0,3.67-8.22,41,41,0,0,0,1.16-10.22,43.84,43.84,0,0,0-4.05-16.12c-3.79-8.62-10.14-15.8-17-22.17-9.2-8.58-19.67-15.59-30.15-22.51a307.4,307.4,0,0,0-35.19-20.09c-6.55-3.18-13.14-6.2-19.83-9.1-3.92-1.71-7.84-3.44-11.73-5.21-5.18-2.36-10.45-4.55-15.56-7-10.58-5.15-20.83-11.18-28.05-20.71-3.21-4.24-6.16-9-7.41-14.25l-.56-23,1.53-5.64A63.21,63.21,0,0,1,63.23,116,78.22,78.22,0,0,1,75,101.42,140.31,140.31,0,0,1,88.57,90c7.42-5.51,15.54-9.65,23.8-13.7l-.8.35,9.38-3.9-.8.33q6.55-2.16,13.08-4.35a33.3,33.3,0,0,1,14.11-2.45,2.63,2.63,0,0,0,2.19-2.83C149.28,62.32,146.72,60.14,145.54,60.32Z"/><path class="cls-2" d="M147.83,56.19a160.28,160.28,0,0,0-17.48,3.73l-8.89,2.89a138.92,138.92,0,0,0-25.22,12c-14.1,8.48-27.46,19.6-36,33.84a75,75,0,0,0-8.29,18.09A61.77,61.77,0,0,0,49.54,143a49,49,0,0,0,4.63,21.31,46.76,46.76,0,0,0,5.62,9.86L65,180.33c5.6,6.14,12.46,10.94,19.42,15.39a226.8,226.8,0,0,0,20.11,10.92c6.82,3.44,13.77,6.56,20.69,9.78a353.3,353.3,0,0,1,35.64,19.09c9.35,5.75,18.74,11.61,27.52,18.21a141.39,141.39,0,0,1,15.29,13,60.67,60.67,0,0,1,7.43,8.41,53.63,53.63,0,0,1,4.43,7.94l-.63-1.48,2.09,5.58-.55-1.49a29.35,29.35,0,0,1,1.53,8.18,23.17,23.17,0,0,1-.83,7.9l.74-2.51-2.08,6.25.93-2.34-2.82,5.66,3-5.07c-11.65,16.8-30.05,23-47.85,29.26-5.6,2-11.21,3.91-16.8,5.91l-5.68,2a96.64,96.64,0,0,0-13.32,5.49C107.55,358,81.48,368.9,55.83,380.73,42.92,386.68,30.22,393,17.58,399.51,7.11,404.91-2.65,410.92-12.72,417a1.94,1.94,0,0,0-.38,2.07,3.26,3.26,0,0,0,2.61,1.58c2.38.75,6.11,1.78,8.4.41q14.3-8.91,29.18-16.79l-1.05.54c20.28-10.43,40.81-20.18,61.62-29.51q15.61-6.94,31.21-13.91t30.86-14c13.15-5.46,26.5-10.38,39.39-16.46,9-4.25,17.9-8.71,25.1-15.71a42,42,0,0,0,6.85-8.78,32.84,32.84,0,0,0,4.54-17.15c.16-12-5.57-23.11-13.07-32.16a115.77,115.77,0,0,0-17.79-16.77q-6.76-5.22-13.9-9.91-9.94-6.93-20.4-13a234.53,234.53,0,0,0-29.69-15.61q-6-2.76-12-5.38c-5.88-2.61-11.6-5.46-17.38-8.27-8.19-4-16.44-7.78-23.61-13.52a57.4,57.4,0,0,1-9.52-9.56,43.57,43.57,0,0,1-5.82-10.81l.34,1.05L61,148.62l.23,1.07-.89-6.76.14,1.08a61.42,61.42,0,0,1,.94-11.32,55.49,55.49,0,0,1,3.67-11,75.72,75.72,0,0,1,17-23.6,121.49,121.49,0,0,1,28.28-19.63,146.51,146.51,0,0,1,16.52-7.19,75.65,75.65,0,0,1,8.66-2.86,80.72,80.72,0,0,1,12.94-3.1l-1.21.17,9.64-1.07a1.83,1.83,0,0,0,1.12-1.79A3.67,3.67,0,0,0,156,60a36.69,36.69,0,0,0-5-3.14A3.63,3.63,0,0,0,147.83,56.19Z"/><path class="cls-2" d="M133.77,48.24c-9.13,1.63-18,3.42-26.75,6.71a170.71,170.71,0,0,0-17.08,7.51,103.16,103.16,0,0,0-11.92,7,98.35,98.35,0,0,0-11.09,8A103.25,103.25,0,0,0,51.86,92.37c-7,8.82-12.52,18.66-15.4,29.59-3.3,12.49-2.64,26.14,3,37.89L43.3,167a71.1,71.1,0,0,0,8.4,10.15A92.19,92.19,0,0,0,68.54,191c11.27,7.36,23.8,12.9,36,18.4,9.72,4.36,19,8.79,28.37,14.09,10.6,6,21,12.37,31.15,19.17A186.42,186.42,0,0,1,181,255.07l5.94,5.26a74.91,74.91,0,0,1,9.8,11.17l-.55-.8,2.12,3.94a18,18,0,0,1,2.19,12,10.5,10.5,0,0,1-.16,9.4,35.24,35.24,0,0,1-2,4l.74-1-2.54,2.86q-2.22,1.91-4.57,3.64a97.25,97.25,0,0,1-9.52,5.82l1.39-.76c-4.18,2-8.28,4.22-12.5,6.16-6.76,3.1-13.59,6.05-20.52,8.75-5.24,2.05-10.52,4-15.79,6-1.87.69-3.73,1.39-5.6,2.1a142.84,142.84,0,0,0-18,8c-23.21,10.4-46.62,20.34-69.7,31-8.2,3.79-16.38,7.62-24.46,11.66L2.2,392.06Q-12.74,400-27,409a1.5,1.5,0,0,0-.14,2.1,5.58,5.58,0,0,0,3.91,1.35,63.29,63.29,0,0,0,7.66.5,5.5,5.5,0,0,0,4-.83q14.33-8.79,29.19-16.66,15-8,30.38-15.33c20-9.68,40.36-18.77,60.53-28.2q27.41-12.8,54.54-26.22c5.76-2.84,11.71-5,17.61-7.51,5.74-2.42,12-5.2,16.65-9.43,4.5-4.07,7.94-9.48,8.69-15.61a37,37,0,0,0-2.17-17.84,46.19,46.19,0,0,0-9.24-14.66c-7.17-8.06-15.93-14.61-24.77-20.71-11.17-7.72-22.82-14.76-34.62-21.46A211.3,211.3,0,0,0,114,207.71q-6.87-3.11-13.77-6.15-7.55-3.34-14.81-7.29-7.17-3.75-14-8.16a114.92,114.92,0,0,1-12.64-10.78,92.29,92.29,0,0,1-10.11-14.4l.36.91a68.85,68.85,0,0,1-4.75-15.57l.09,1.1a43.85,43.85,0,0,1,0-10.86,22.82,22.82,0,0,1,.94-6.2,59.29,59.29,0,0,1,5.12-14.15,75.29,75.29,0,0,1,8.29-12.55A92,92,0,0,1,69.39,92,131.11,131.11,0,0,1,101,71.79a153,153,0,0,1,20.47-7.92L130,61.56q8.2-1.59,16.5-2.48a1.44,1.44,0,0,0,1.15-1.76,6.1,6.1,0,0,0-2.94-3.23,71.22,71.22,0,0,0-6.82-4.45A6.08,6.08,0,0,0,133.77,48.24Z"/><path class="cls-2" d="M134.61,56.91c-9.05,1.67-17.8,3.46-26.48,6.58a133,133,0,0,0-25,11.85A160.45,160.45,0,0,0,67.31,86.43C48.7,101.35,33.53,125.27,37.16,150a53.5,53.5,0,0,0,5.26,16.35c3.31,6.6,8.37,11.93,13.53,17.08A66.87,66.87,0,0,0,63,189.31l5.53,4.14q5.09,3.35,10.37,6.37c5.65,3.31,11.35,6.51,17.2,9.47,6.69,3.37,13.57,6.38,20.29,9.67a378.65,378.65,0,0,1,42.71,24.6c7,4.68,13.89,9.57,20.59,14.73l-1.23-1,7.28,6.24-1.22-1.07c4.12,4.05,8.29,8,11.44,12.87a53.52,53.52,0,0,1,4.82,9.78L200,282l1.87,7-.66-3.17,1.15,7-.68-7.89.05,12,1.27-9.53-2.25,13,2.17-9.57-3.57,12.64,3.25-9.5-5.38,12.95,4.34-9.15-7.07,12.26,5.45-8.75-8.54,11.58,6.52-8.08-10,10.68,7.57-7.41-11.37,10,8.45-6.5L172.28,325l3.32-1.94-8.19,4.12,3.55-1.62Q158.66,331,146.2,336c-4.41,1.75-8.84,3.43-13.28,5.1-9.79,3.67-19.14,8.36-28.7,12.59-20.77,9.19-41.66,18.11-62.28,27.64C31.6,386.05,21.35,391,11.22,396.21q-7.6,3.77-15,8-11.16,6-21.84,12.83c-3.72,2.25,4.9,4.46,5.21,4.56,3.8,1.08,7.62,2,11.49,2.79a11.88,11.88,0,0,0,6.22.38c9.6-5.67,19.2-11.3,29-16.55,10-5.36,20.26-10.44,30.5-15.41,23.4-11.37,47.1-22.1,70.52-33.44,12.75-6.18,25.44-12.71,37.6-20a144.4,144.4,0,0,0,20-13.81c3.83-3.27,7.39-6.82,11-10.37,2-2,3.56-4.82,5-7.19l2.63-4.44,1.61-3.25a36.21,36.21,0,0,0,1.17-6.72,65,65,0,0,0,.44-9.46,22.94,22.94,0,0,0-1.27-7.15,46.08,46.08,0,0,0-4.7-9.49,78.53,78.53,0,0,0-13.05-15.2,166.76,166.76,0,0,0-16.15-13.13c-12.2-8.84-25-16.87-38-24.49A190.89,190.89,0,0,0,111,202.76l-6.16-3.32c-4.18-2.28-8.44-4.57-12.41-7.21a112.19,112.19,0,0,1-10.28-8.16c-3.51-3-7.23-5.76-10.43-9.08-5.44-5.62-10.18-12.44-12.51-20a36.29,36.29,0,0,1-1.46-11.41A38,38,0,0,1,59,135.09c1.68-7.15,5.71-13.29,9.64-19.39l-.68,1q3.55-4.64,7.36-9l-.8.94a44.84,44.84,0,0,1,6.61-6.31,81.21,81.21,0,0,1,8.79-6.74A138.59,138.59,0,0,1,107,85.84a127,127,0,0,1,19.37-7.65L134.58,76q7.81-1.27,15.67-2.19c4.07-.52-1.64-5.72-2.2-6.29q-4-3.95-8.36-7.53A10.9,10.9,0,0,0,134.61,56.91Z"/><path class="cls-2" d="M138.29,64.28a58.85,58.85,0,0,0-13.38,2.36,95.22,95.22,0,0,0-13.28,4.1,151.27,151.27,0,0,0-20.95,9.91C77.14,88.42,64.2,98.46,55.19,111.36a84.79,84.79,0,0,0-9.78,18,70.87,70.87,0,0,0-3.63,13.12,43.48,43.48,0,0,0-.59,9.86,38,38,0,0,0,1.06,10.06l1.94,6.78a42.07,42.07,0,0,0,5.07,9.84,72.57,72.57,0,0,0,13.1,15.09c6,5.42,13.32,10,20.34,14,6.59,3.72,13.26,7.31,20.07,10.6,5.66,2.73,11.39,5.34,17.07,8,11.1,5.28,21.78,11.32,32.31,17.64a321.07,321.07,0,0,1,27.57,18.22l6.52,5.05a105.65,105.65,0,0,1,11.41,10.67L196.49,277l5.82,7-1.1-1.38a54.83,54.83,0,0,1,5.16,9.76,39,39,0,0,1,2.2,9.86l0-3.32-.09,7.16.25-3.29-1,7,1.72-7.68-3,11.19,2.52-7.37-4.41,10.56,3.32-6.95-6,10.4,4-6.21L198.7,323l4.7-5.42-12.49,10.76,5.53-3.7-10,6,2.27-1.34-7,3.63,2.34-1c-9.49,4.11-19,7.77-28.76,11.29-8,2.9-16.21,5.51-24.12,8.73l-15.36,6.91-15.46,6.73c-13,5.66-26.07,11.25-39.06,17s-26,11.68-38.73,18L7.46,408.4q-14.92,7.92-29.21,17a1.9,1.9,0,0,0-.76,2,3.34,3.34,0,0,0,2.32,2.07,33.53,33.53,0,0,0,5.21,2,3.33,3.33,0,0,0,3.1,0L2.4,422.78q11-6.39,22.3-12.08c12.7-6.54,25.58-12.69,38.6-18.57C89.54,380.29,116.05,369,142.21,357l-1.14.46c8.2-3.15,16.41-6.29,24.52-9.68,5.94-2.48,12-5,17.72-8,12.43-6.59,25.28-15.85,30.23-29.63a36.3,36.3,0,0,0-.48-25.24c-3.82-10.17-11-18.41-18.86-25.74A177.42,177.42,0,0,0,175,244.05a417,417,0,0,0-41.51-26q-9.3-4.38-18.35-9.26-4.44-2.35-8.83-4.78a101.57,101.57,0,0,1-10.81-6.79,74,74,0,0,0-9.66-6.57,112.53,112.53,0,0,1-15-11.87c-5.26-5-10.12-10.68-12.67-17.59a41.29,41.29,0,0,1-2.7-14.81c.07-7.3,2.29-13.92,5-20.59l-.5,1,3.08-6-.56.95,3.79-6.22-.59.93a39,39,0,0,1,6.3-8,73.79,73.79,0,0,1,8.74-8.49A126,126,0,0,1,98.16,87.77a123.71,123.71,0,0,1,20-9.46l8.58-2.85a44.25,44.25,0,0,1,17.14-2.54,2.15,2.15,0,0,0,1.5-1.48,2.83,2.83,0,0,0-1-2.59,25,25,0,0,0-3.46-3.51A2.82,2.82,0,0,0,138.29,64.28Z"/><path class="cls-2" d="M146.44,48.39c-5.11.78-8.16,1.23-12.83,2.37s-9.39,2.52-14,4.12A142.32,142.32,0,0,0,79.18,77.17a91.82,91.82,0,0,0-17.5,17.67,109.1,109.1,0,0,0-7.43,11.55,50.57,50.57,0,0,0-4.14,9.23,56,56,0,0,0-2.92,9.68l-.94,6.8a33.67,33.67,0,0,0,.24,10.51,51.15,51.15,0,0,0,5.26,17.84l4,6.92A61.86,61.86,0,0,0,64,176.83c10,10.06,22.53,16.69,35.06,23,5.85,3,11.84,5.58,17.86,8.19,7.15,3.12,14.19,6.33,21.15,9.88a349.86,349.86,0,0,1,55.7,35.31l-.83-.7c6.32,5.52,13,11.1,17.25,18.46a40.33,40.33,0,0,1,3.11,6.11,39.36,39.36,0,0,1,2.14,8.26l-.11-1.52.31,5.58,0-1.49c-.68,10.71-5.41,15.84-12.87,20.87a76.11,76.11,0,0,1-12.75,6.5c-13.32,5.68-27,10.45-40.61,15.35l-5.56,2a157.59,157.59,0,0,0-20.77,8.88c-15.4,6.85-30.88,13.51-46.28,20.36-13,5.76-25.91,11.62-38.7,17.82q-11.54,5.47-22.8,11.5Q.32,399.19-14,408.19c-1.49.9-1.82,2.59-.16,3.58a16.42,16.42,0,0,0,4.57.68A16.25,16.25,0,0,0-5,412.18q10.71-6.74,21.86-12.71,7.36-4.19,15-8c12.62-6.5,25.42-12.61,38.29-18.59s25.77-11.7,38.66-17.53q11.46-5.16,22.88-10.43l15.16-7c8.41-3.65,17-7,25.48-10.42,4.42-1.76,8.79-3.65,13.24-5.35,2.73-1,5.49-2.08,8.2-3.19a74.75,74.75,0,0,0,13.47-7.19,29.92,29.92,0,0,0,11.15-13.94,30.48,30.48,0,0,0,2.26-8.5c.09-1.5.08-3,.07-4.5-.08-7.85-3-15.1-7.12-21.67-5.58-8.91-14-15.94-22.28-22.27-5.59-4.28-11.44-8.31-17.36-12.13l-13.52-8.39a182.11,182.11,0,0,0-21.75-11.91,119.69,119.69,0,0,0-11-5.22q-4.87-2.13-9.82-4.11c-5.5-2.25-11-4.52-16.35-7.08-11.53-5.5-23.1-11.24-32.2-20.41-4.4-4.43-8.26-9.14-10.8-14.94l-2.55-6.53A44.37,44.37,0,0,1,54.41,140a27.79,27.79,0,0,1,.45-9.7l1.35-6.3a61.45,61.45,0,0,1,6.45-14.37A90.78,90.78,0,0,1,72.33,96.4,93.69,93.69,0,0,1,87,83.11a135,135,0,0,1,18.81-11.77A186.88,186.88,0,0,1,131.25,61l-1.26.36,10.14-2.84-1.28.32a87.22,87.22,0,0,1,17.53-2.61c.79-.08,1.72-.15,2.11-1,.61-1.29-.63-2.29-1.55-2.91a32.81,32.81,0,0,0-5.42-2.82,11.81,11.81,0,0,0-2.64-1A2.89,2.89,0,0,0,146.44,48.39Z"/><path class="cls-2" d="M135.14,62.31c-8.87,1.8-17.71,3.55-26.22,6.75a151.25,151.25,0,0,0-21,9.69A128.66,128.66,0,0,0,61.69,98a84,84,0,0,0-18.46,26,68.29,68.29,0,0,0-4.91,15.49,41.26,41.26,0,0,0-.69,9.79,36.64,36.64,0,0,0,1,10,54.37,54.37,0,0,0,6.88,16.46,71.48,71.48,0,0,0,12.8,14.91,111.39,111.39,0,0,0,13,9.7,212.19,212.19,0,0,0,19.8,11.48c5.7,3,11.5,5.76,17.31,8.5,8.42,4,16.74,8.12,24.92,12.56q10.62,5.91,20.84,12.5,7.08,4.31,13.89,9.06l6.93,4.9a141.88,141.88,0,0,1,12.56,10.26l-1.3-1.22,6.72,6.65-1.26-1.28,4.73,5.59a35.82,35.82,0,0,1,3.46,5.8,45.63,45.63,0,0,1,3.56,9.85l-.65-3.5,1.13,7.38-.37-3.57.27,7.4L204,294l-.84,12.42,2-13.81-2.67,13.69,2.76-10-4.19,13.23,3.93-9.75L199,313l5-9.05-7.74,12.29,6.19-8.3-9.36,11.28,7.12-7.27-17.43,14.86,7.06-4.72-11.51,7,3-1.71c-5,2.54-10.07,5.05-15.3,7.21-3.54,1.47-7.1,2.88-10.67,4.29q-7.81,3.07-15.7,6L134,347a99.23,99.23,0,0,0-13.38,5.64C97.45,363.26,73.9,373,50.7,383.55q-15.57,7.05-30.92,14.6-11.46,5.6-22.55,11.9-11.16,6-21.83,12.84c-3.12,1.89,2.44,4.18,3.39,4.61a88.29,88.29,0,0,0,8.61,3.09,7.37,7.37,0,0,0,4.83.57q14.2-8.85,29-16.69,15.1-8,30.54-15.32c15.65-7.48,31.5-14.55,47.3-21.71q15.8-7.14,31.52-14.43,10.77-5.61,21.83-10.6,9.16-4.31,18-9.13c8.94-4.89,17.55-10.38,24.83-17.56,5.39-5.32,9.06-12.51,11.86-19.49a60.31,60.31,0,0,0,2.9-8.46,27.57,27.57,0,0,0-1.31-9.07,19.83,19.83,0,0,0-2-8.86,39.17,39.17,0,0,0-1.92-3.9,65.35,65.35,0,0,0-4.37-6.79A90.08,90.08,0,0,0,188,255.86a187.13,187.13,0,0,0-22.63-17.31c-12.4-8.32-24.92-16.53-38-23.68q-10.95-5.12-21.45-11.1-4.58-2.47-8.92-5.32a59.59,59.59,0,0,1-8.07-5.78,102.41,102.41,0,0,0-9.26-7.9,106.27,106.27,0,0,1-8.68-8.3,105.48,105.48,0,0,1-7.2-9.51l.6,1a91.68,91.68,0,0,1-4.59-9.72l.27,1.16q-1-3.73-1.58-7.53a17.39,17.39,0,0,1-.32-6.31l.28-4.33A53.81,53.81,0,0,1,60,134.73c2.64-9.25,8.22-17.22,14.18-24.63l-.8.86,6.14-6.07-.85.8L85.41,100l-.89.75a117.85,117.85,0,0,1,13.26-9,128.14,128.14,0,0,1,15-7.56,123.43,123.43,0,0,1,16.38-5.68A156.49,156.49,0,0,1,145,75.68c3.29-.48.27-4.18-.59-5.24a68.39,68.39,0,0,0-5.57-5.85A6.07,6.07,0,0,0,135.14,62.31Z"/><path class="cls-2" d="M143.31,44.78a166,166,0,0,0-19,4.09,156.07,156.07,0,0,0-17.64,6.37A137.78,137.78,0,0,0,82.31,68.73L75,74.19A111.51,111.51,0,0,0,62.55,85.67a73,73,0,0,0-9.18,12,88.39,88.39,0,0,0-6.31,11.59,62.68,62.68,0,0,0-4.84,17.39,53.1,53.1,0,0,0-.58,10.77,46.06,46.06,0,0,0,2,10.69,33.39,33.39,0,0,0,4.22,10.6l4.26,6.87c4.84,7.07,11.65,12.76,18.46,17.85s14.54,9.3,22.14,13.19c7.21,3.69,14.59,7,22,10.25,9.51,4.24,18.47,8.51,27.61,13.71,11.84,6.72,23.57,13.75,34.72,21.56a182.15,182.15,0,0,1,16.31,12.6,73.37,73.37,0,0,1,8.26,8.09,32.05,32.05,0,0,1,6.61,9.63l-.37-.86,2.07,4.88-.35-.87a37.83,37.83,0,0,1,1.91,8.06q.56,12.22-7.92,19l.71-.56-4.43,3.25.75-.5L196,307.64l.8-.44q-3.51,1.91-7.19,3.49a63.66,63.66,0,0,1-6.82,2.71c-3.26,1.31-6.52,2.59-9.8,3.87-9.81,3.82-19.76,7.22-29.63,10.88l-9.65,3.58-15.16,6.82c-15.35,6.88-30.83,13.49-46.2,20.33C56.82,365.79,41.25,372.73,26,380.41L10.92,388.2q-15,7.94-29.31,17a2,2,0,0,0,0,3.58,13.74,13.74,0,0,0,4.19.43,13.4,13.4,0,0,0,4.18-.51c9.68-5.78,19.35-11.5,29.29-16.81s20.18-10.33,30.38-15.25c22.82-11,46.1-21.08,69.12-31.64,8.42-3.86,16.75-8,25.3-11.56q4.65-1.92,9.35-3.76c8.3-3.28,16.69-6.27,25-9.42,8.79-3.32,17.55-6.32,25.29-11.76a30.91,30.91,0,0,0,4.08-3.35,25.14,25.14,0,0,0,5.13-7,27.81,27.81,0,0,0,3.05-11,34.69,34.69,0,0,0-2.16-13.86,51.48,51.48,0,0,0-2.19-5.06,45,45,0,0,0-6.85-9.87c-8.08-9.19-18.23-16.46-28.35-23.22-7.85-5.24-15.89-10.18-24.05-14.93-7.22-4.21-14.55-8.45-22.11-12-18.85-8.92-39-15.64-56-27.94A79.86,79.86,0,0,1,62,169.4L57,163.24a46.46,46.46,0,0,1-5.33-9.88,18.53,18.53,0,0,1-2.22-6.7,29.49,29.49,0,0,1-1.11-6.73,17.9,17.9,0,0,1,0-6.92A58.1,58.1,0,0,1,50,122.38l-.26.9,2.59-7.46-.36.9,3.26-7.39-.42.9,3.86-6.49-.53.87,4.45-6.33-.61.85L67,93l-.7.82,5.55-5.91-.78.79,7.43-6.51-.86.74,8-6-.93.69,8.5-5.52-1,.63,9-5-1.07.57,9.34-4.49-1.11.51,9.66-4-1.16.46,9.92-3.45-1.2.42a87,87,0,0,1,13.27-3.42,100.24,100.24,0,0,1,12.8-2A1.84,1.84,0,0,0,153,49a29.44,29.44,0,0,0-9.71-4.26Z"/><path class="cls-2" d="M131.21,51.92c-9.12,1.62-18,3.41-26.71,6.69a172.87,172.87,0,0,0-17.07,7.51,103.64,103.64,0,0,0-11.9,7,98.55,98.55,0,0,0-11.07,8,101,101,0,0,0-15,15c-6.88,8.81-12.33,18.69-15.12,29.55-3.16,12.31-2.44,25.77,3.22,37.29l3.7,6.8a66.87,66.87,0,0,0,7.85,9.81A94,94,0,0,0,65.6,193.63c11.29,7.75,23.77,13.71,36.18,19.39,9.73,4.45,19.18,9,28.52,14.32,10.59,6,21,12.37,31.12,19.15a189.54,189.54,0,0,1,16.83,12.28l5.89,5.17a76.92,76.92,0,0,1,9.69,10.87l-.69-.94a46.31,46.31,0,0,1,4,7.5q4,10.59-.57,19.54l.84-1.38-3.05,4.32,1-1.37q-3.17,3.28-6.57,6.35l1.37-1.25c-2.61,1.95-5.25,3.84-7.92,5.7l1.76-1A256.88,256.88,0,0,1,152.22,328l2.34-1c-8.11,3.13-16.25,6.16-24.38,9.22a164,164,0,0,0-20.84,9.12q-12.24,5.48-24.56,10.81c-18.24,7.94-36.51,15.81-54.5,24.31q-15.45,7.25-30.5,15.23t-29.25,17a1.41,1.41,0,0,0-.34,2.08,6.36,6.36,0,0,0,4.1,1.76,74.21,74.21,0,0,0,8.23,1.33,6.36,6.36,0,0,0,4.45-.4q14.28-8.79,29.11-16.65,11.25-6,22.75-11.58c18-8.85,36.2-17.17,54.36-25.64l15.51-7.25q14.76-6.81,29.23-14.21c5.54-2.69,11.09-5.33,16.56-8.16,5.16-2.66,10.19-5.53,15.25-8.36s10.65-4.95,15.86-7.71c7.66-4,14.24-9.73,17-18.16a29.75,29.75,0,0,0,.42-15c-2.24-10.83-9.32-19.67-17.34-26.91a181.16,181.16,0,0,0-19.15-14.86c-11.12-7.64-22.76-14.79-34.52-21.39-9.24-5.19-18.63-9.79-28.18-14.33q-7.5-3.39-14.77-7.24-7.38-4.11-14.4-8.81l.78.51-7.76-5.49.74.6a115.52,115.52,0,0,1-12.9-12.61l.6.85a77.3,77.3,0,0,1-8.52-14.4l-1.92-6.48a44.74,44.74,0,0,1-.4-18.4c2-11,7.7-21,14.67-29.54a87,87,0,0,1,13.93-14A131,131,0,0,1,94.27,79.05a157.29,157.29,0,0,1,19.64-8.5,99.51,99.51,0,0,1,12.53-3.83q8-1.62,16.16-2.53A1.44,1.44,0,0,0,144,62.57,6.1,6.1,0,0,0,141.4,59a69.39,69.39,0,0,0-6.25-5.22A6.09,6.09,0,0,0,131.21,51.92Z"/><path class="cls-2" d="M146.74,32.69a92.74,92.74,0,0,1,16.57,1,99.12,99.12,0,0,1,12.11,2.19A91.06,91.06,0,0,1,187,39,113.1,113.1,0,0,1,201.3,44.9l-1.9-1,8.47,4.52L206,47.33l8,5-1.81-1.18,7.45,5.41-1.75-1.29a86.37,86.37,0,0,1,11.73,11.61,28.44,28.44,0,0,1,3.6,5,38.59,38.59,0,0,1,4.17,7.85L236,75.64l3.29,9.48-1.11-4.25,2.28,9.63-.74-4.34,1.24,9.71-.33-4.42.19,9.73.6-10.77-1.38,16,1.67-10.7-3,15.79,2.77-10.42-4.77,15.39,3.9-10.14L234.11,121l5-9.71L231,125.46l6-9.12-9.62,13.34,7-8.39L223.3,133.66l3.14-3.23-8.24,7.62,3.48-2.84-9.05,6.92,3.76-2.45q-7.83,5.37-16.06,10.09-7.67,4.38-15.5,8.47c-7.17,3.75-14.39,7.39-21.47,11.31a199,199,0,0,0-27.73,18c-8.7,6.91-16.5,14.91-24.33,22.78C99,222.7,86.52,235.35,78,250.72A73.54,73.54,0,0,0,69.5,275.8a61.39,61.39,0,0,0,.69,20.55c1.94,9.78,7.2,18.59,13.25,26.37a143.12,143.12,0,0,0,17,17.92c11.12,10.06,23.93,18.38,36.8,26,20.7,12.25,42.93,21.89,65.48,30.16,13.56,5,27.41,9.24,41.38,12.91a67,67,0,0,0,13,3c1.31.21,2.63.44,3.94.68,8.43,1.51,16.89,2.85,25.4,3.88,13.23,1.6,26.53,2.39,39.83,3.21,19.1,1.19,38.27,1.17,57.41.82,26.14-.48,52.26-1.87,78.34-3.77,77.09-5.62,153.86-15.9,230.11-28.44,71.12-11.69,141.74-25.88,212-42,4.33-1-4-5.58-3.86-5.51q-5-2.78-10.2-5.11a11,11,0,0,0-5.79-1.67c-21.74,4.74-43.47,9.57-65.26,14.09q-41.87,8.69-84,16.24c-62.84,11.23-126,20.69-189.43,27.72-47.5,5.27-95.17,9-142.94,10.75q-27.09,1-54.21.55c-6.86-.11-13.71-.28-20.56-.6-3.62-.1-7.23-.38-10.82-.82-3.19-.31-6.36-.72-9.52-1.25-17-1.8-33.9-3-50.51-7.23-2.43-.6-4.88-1.19-7.27-1.93-2-.64-4-1.55-6-2.29l-10-3q-7.47-2.28-14.82-4.92-12.15-4.26-24-9.2a323.93,323.93,0,0,1-47.49-24.31c-6.22-3.9-12.27-8-18.11-12.49a116.85,116.85,0,0,1-9.36-7.83,92.53,92.53,0,0,1-8.15-7.94,63.28,63.28,0,0,1-8.61-12.29c-1.39-2.68-3-5.28-4.33-8a41.24,41.24,0,0,1-4.06-13.45L94.32,282a65.72,65.72,0,0,1,1-9.49L95,273.71l1.65-6-.41,1.22,2.09-6.12L97.88,264l2.69-6-.54,1.16,3.13-6.31-.6,1.15A68.09,68.09,0,0,1,110,242.8l5-6.05a232,232,0,0,1,16.83-17.52c7.08-6.79,14.21-13.56,21.46-20.16a136.87,136.87,0,0,1,15-12.39l6.85-4.91c14.25-10.1,29-19.39,42.45-30.64,12.75-10.7,24.42-24,29-40.36a56.83,56.83,0,0,0-1.64-35.68c-4.51-12-12.52-22.07-22.41-30.15C210.79,35.38,197,28.8,182.67,24.32a155,155,0,0,0-24.27-5.41C149,17.56,139.46,16.52,129.93,16c-1.11,0-1.56.52-1.34,1.62a11.38,11.38,0,0,0,3.93,4.67q4.3,3.87,8.9,7.37A11.33,11.33,0,0,0,146.74,32.69Z"/><path class="cls-2" d="M149.82,24.94a94.83,94.83,0,0,1,16.41,1,95.59,95.59,0,0,1,12.12,2.19,88,88,0,0,1,11.59,3.2,113.84,113.84,0,0,1,14.27,5.93l-1.44-.77,8,4.33L209.37,40l7.5,4.76-1.35-.88a83,83,0,0,1,10.79,8.73,48.31,48.31,0,0,1,6.47,7.32,42.36,42.36,0,0,1,5.12,7.76,49.07,49.07,0,0,1,4.19,10.78l-.61-2.81,1.65,8.26-.39-2.84.75,8.26-.15-2.87-.15,8.2.62-6.92L234,116l4.94-7-8.42,11.18,5.69-6.59a125.17,125.17,0,0,1-34.92,28.21l2.95-1.68c-19,10.43-38.8,19.78-56.84,31.92q-5.19,3.38-10,7.25-8.61,7.09-16.49,15c-7.74,7.56-15.4,15.27-22.63,23.31C85.82,231.44,74.4,247.4,71.74,266.3c-1.35,9.61-.9,19.46,2.34,28.68,3.29,9.38,9.1,17.6,15.38,25.2,13.6,16.45,31.54,28.77,49.89,39.37a404.36,404.36,0,0,0,65.93,30c10.21,3.66,20.55,6.94,31,10a256.24,256.24,0,0,0,26.06,6.33c21,3.74,42.18,5.59,63.47,6.84,44.2,2.6,88.63.63,132.76-2.46,76.09-5.35,151.82-15.38,227.11-27.48C760,370.83,833.71,356,907,339.12c3.63-.84-1.44-4.83-2.07-5.35a88.68,88.68,0,0,0-7.51-5.26,7.44,7.44,0,0,0-4.53-1.83c-26.32,5.89-52.65,11.8-79.07,17.25q-56.67,11.69-113.76,21.32c-77.34,13.1-155.3,23.57-233.54,29.41-25.22,1.87-50.47,3.38-75.75,4.08q-14.3.4-28.61.44c-10.8,0-21.66.07-32.44-.55-6.44-.36-12.84-1.16-19.27-1.6q-9.9-.69-19.78-1.66c-9.45-.94-18.82-2.34-28.16-4.06-2.94-.54-5.78-1.2-8.66-2-7.39-2.07-14.82-3.93-22.17-6.15A422.52,422.52,0,0,1,165,356.93c-17.72-8.85-35-19.14-50-32.11a88.75,88.75,0,0,1-11.18-11.26,81.07,81.07,0,0,1-5.64-8.12c-4.47-7.13-8.55-14.52-9.5-23.06a51.49,51.49,0,0,1,.94-17.28A78.74,78.74,0,0,1,97.23,246a101.63,101.63,0,0,1,12.14-17.55,260.19,260.19,0,0,1,23-23.85c7.7-7.13,15.23-14.41,23.16-21.28a272,272,0,0,1,24.29-18.16C194.53,155,210,145.58,223.45,133.82q4-3.49,7.69-7.33a67.31,67.31,0,0,0,10.05-12.58A59.65,59.65,0,0,0,248,95.71c3.08-15-1.39-30-9.91-42.43A74.21,74.21,0,0,0,222.55,37.2,112.86,112.86,0,0,0,203.21,25a132.72,132.72,0,0,0-27-9.75c-12.08-3-24.58-4.32-37-5.24a1.36,1.36,0,0,0-1.56,1.41,7.13,7.13,0,0,0,2.29,4.17,85,85,0,0,0,6,6.61A7.19,7.19,0,0,0,149.82,24.94Z"/><path class="cls-2" d="M151.63,31.12a57.1,57.1,0,0,1,12.33.43,120.55,120.55,0,0,1,12.26,1.74,130,130,0,0,1,19.18,5.39,103.54,103.54,0,0,1,17.19,8l6.12,3.87a81.69,81.69,0,0,1,10.74,8.7l-1.62-1.7L234,64l-1.51-1.79,5.37,6.82-1.38-1.87L241,74.27l-1.25-2A49.59,49.59,0,0,1,244.24,83,46.36,46.36,0,0,1,246,93.75l.06-4.42L246,99.09l.46-4.35-1.17,9.6.87-4.25-2.18,9.38,1.27-4.07L242,114.5l1.68-3.88-4.19,8.57,2-3.68-5.12,8.2,2.39-3.42-6,7.72,2.7-3.13-6.85,7.18,3-2.81-8.14,7.26,3.23-2.47a138.81,138.81,0,0,1-14.88,10.48q-6.41,3.9-13,7.47c-8.79,4.81-17.75,9.31-26.56,14.09a244.48,244.48,0,0,0-24.69,15c-11.35,8-21.15,17.87-30.93,27.7-6,6.06-12.09,12.14-17.68,18.62-6.94,8-13.58,16.64-17.86,26.42-4.63,10.61-7.6,21.95-6.63,33.64a62.61,62.61,0,0,0,2.93,13.88,56.48,56.48,0,0,0,4.68,9.76,101.89,101.89,0,0,0,17.06,21.74c15.2,15.23,33.76,27.12,52.62,37.28a426.06,426.06,0,0,0,45.72,21c13.37,5.27,27.05,9.83,40.86,13.82,8.13,2.34,16.37,4.93,24.77,6.13l-1.27-.19c8.28,1.44,16.54,2.93,24.88,4,13.58,1.79,27.23,2.79,40.91,3.59,44.19,2.59,88.58.81,132.7-2.25C536.47,411,612.24,401.09,687.53,389c74.28-12,148-26.69,221.34-43.55,4.58-1-4.4-6.32-4.46-6.37q-5.74-3.67-11.74-7a15.32,15.32,0,0,0-6.65-2.68c-38.73,8.4-77.43,16.86-116.37,24.27-53.4,10.16-107,19-160.93,26.2-47.11,6.29-94.38,11.51-141.8,14.79-33.69,2.33-67.49,4.06-101.28,4-11.24,0-22.49-.14-33.72-.67-5.69-.27-11.29-.82-16.92-1.64-4.06-.58-8.15-.84-12.24-1.22-13.57-1.27-27.06-2.82-40.32-6a106.07,106.07,0,0,1-10.94-3.17c-5.39-1.94-11-3.28-16.45-5q-9.75-3.06-19.33-6.56A398.45,398.45,0,0,1,174.89,357q-8.31-4.14-16.41-8.72c-8-4.49-15.49-9.5-23-14.66l1,.73-7.51-5.6,1,.77-7-5.72.94.83-6.37-5.82.89.89-5.51-5.83.81,1-4.32-5.57.7,1c-4-6.16-8.67-12.08-11-19.13a48.15,48.15,0,0,1-1.86-9.52,49.9,49.9,0,0,1,.64-10.07l-.23,1.22,1.46-6.26-.32,1.2,2-6.32-.39,1.18a108,108,0,0,1,4.72-10.4,67.14,67.14,0,0,1,7.5-11.47,193.3,193.3,0,0,1,16.07-18.13q5.76-5.81,11.8-11.3,7.7-7.53,15.68-14.77l8.48-7.39Q171.2,184,178,179.35c16.34-11.31,33.73-21.4,48.79-34.46,8-7,15.43-14.86,20.74-24.12a57.28,57.28,0,0,0,7.54-31.21c-.85-15.62-7.84-30.08-18.43-41.48C224.46,35,207.94,25.76,191.05,20.16A168.65,168.65,0,0,0,166.26,14q-8.52-1.35-17.12-2.22a85.45,85.45,0,0,0-15.63-1.46c-4.73-.22,2.8,7.27,2.75,7.2q4.63,4.92,9.61,9.5A15.25,15.25,0,0,0,151.63,31.12Z"/><path class="cls-2" d="M158.62,39.22l8.38.15a103.88,103.88,0,0,1,12.32,1.52,144.8,144.8,0,0,1,19.43,4.84l-1.58-.6,8.8,3.38-1.54-.67,8.4,3.88-1.5-.75,7.95,4.34-1.44-.83,7.45,4.78-1.38-.9A94.39,94.39,0,0,1,236.74,69.5a53.84,53.84,0,0,1,9.11,12.7,58.56,58.56,0,0,1,4,10.89c1.41,5.53,1.2,11,.74,16.58l.47-2.35L249.49,115l.67-2.17-2.54,7.45.81-2-3.25,7.09,1-1.74-4,6.34,1.07-1.56-4.78,6.05,1.15-1.36-5.44,5.54,1.18-1.17a98,98,0,0,1-10.79,8.25,138.75,138.75,0,0,1-14.07,7.91l1.14-.6c-19.6,9.36-40.18,17.19-58.5,29a165.17,165.17,0,0,0-21.91,16.84c-5.64,5.14-11.06,10.74-16.4,16.2-9.94,10.18-20,20.6-27.82,32.54-9,13.66-14.57,30.65-12.52,47.15a64.18,64.18,0,0,0,3.87,15.52c2.93,7.33,7.5,13.84,12.41,19.94a134.63,134.63,0,0,0,17.31,17.37,225.06,225.06,0,0,0,30.6,21.68,406.69,406.69,0,0,0,64.63,31.05c10.11,3.86,20.36,7.33,30.69,10.54q10.47,3.21,21.06,5.95a71.6,71.6,0,0,0,13.12,3c7.69,1.18,15.34,2.52,23.05,3.53C303.43,425,315.69,426,328,426.73c46.52,2.74,93.15,1.07,139.61-2.22,76.19-5.4,152.06-15.44,227.44-27.65,74.3-12,148.1-26.76,221.44-43.71a1.35,1.35,0,0,0,.94-1.88,7.15,7.15,0,0,0-3.68-3,83.21,83.21,0,0,0-8-4,7.2,7.2,0,0,0-4.65-1.09c-38.81,8.54-77.62,16.95-116.64,24.45Q699.62,383.86,614,395.3c-46.49,6.19-93.15,11.31-139.94,14.57-34.73,2.42-69.55,4.18-104.36,4-11.9-.06-23.89-.06-35.75-1.09-4.21-.37-8.37-1-12.58-1.29q-7.47-.54-14.92-1.22a358.43,358.43,0,0,1-37-5.4c-6.25-1.26-12.67-3.08-18.75-4.78q-22.31-6.19-44-14.34c-13.69-5.17-27.16-10.9-40.32-17.3a433.35,433.35,0,0,1-39.63-22.11l.94.58-7.8-5.22.9.63-7.39-5.39.87.68c-8.49-6.92-16.87-14-23.21-23.05a29.46,29.46,0,0,1-3.53-5.64,20.9,20.9,0,0,1-2.7-6,25.49,25.49,0,0,1-2-12.31,31.76,31.76,0,0,1,.07-15.41,74,74,0,0,1,10.36-25c7.61-11.74,17.52-21.83,27.14-31.9l-.62.64,8.18-8.36-.63.62c7.34-7.09,14.71-14,23-20a192.86,192.86,0,0,1,25.05-14.92c13.57-7,27.66-12.93,41.2-20,15.36-8,30.78-19.27,37.43-35.91a54.17,54.17,0,0,0-.1-40.14c-3.54-8.84-9.31-16.4-16-23C228.23,47.7,216,41.06,203.57,36a133.62,133.62,0,0,0-28.26-7.64,252.8,252.8,0,0,0-28.38-3.11,1.35,1.35,0,0,0-1.44,1.53,7.1,7.1,0,0,0,2.59,4,82.35,82.35,0,0,0,6.45,6.08A7,7,0,0,0,158.62,39.22Z"/><path class="cls-2" d="M158.43,32.4a67.7,67.7,0,0,1,12.41.56,114.11,114.11,0,0,1,12.22,1.75,126.27,126.27,0,0,1,19.1,5.48,100.71,100.71,0,0,1,17.08,8.1l6.09,3.92A80.86,80.86,0,0,1,236,61l-1.24-1.29,5.69,6.14-1.14-1.34L244.2,71l-1-1.38a51.57,51.57,0,0,1,5.67,10.68,35.06,35.06,0,0,1,2.28,8.26,32.67,32.67,0,0,1,.87,8.37,43.64,43.64,0,0,1-1.34,10.85l.72-2.49-2.47,7.78.9-2.3-3.23,7.46,1.07-2.11-3.92,6.72,1.23-2-4.76,6.44,1.36-1.76-5.46,6,1.46-1.58a104.16,104.16,0,0,1-11.78,9.58l1.61-1.21-7.64,5,1.65-1-8,4.56,1.7-.91c-18.11,9.25-36.91,17.19-54.34,27.72a186.5,186.5,0,0,0-17.91,12.27c-9.91,7.67-18.57,17-27.33,25.93-14,14.18-28.68,29.61-34.95,49-3.69,11.39-5.16,23.51-2.26,35.26a59.93,59.93,0,0,0,5.18,13.88c4.85,9.3,11.8,17.29,19.22,24.63,13.21,13.06,29.07,23.49,45.15,32.65a415.4,415.4,0,0,0,66,29.84c10.21,3.65,20.55,6.92,31,9.93a245.12,245.12,0,0,0,26.15,6.31c8.17,1.41,16.36,2.69,24.59,3.69,12.92,1.57,25.89,2.45,38.88,3.19,44.25,2.52,88.69.66,132.86-2.45,76.15-5.34,151.93-15.39,227.28-27.49,74.3-11.94,148.08-26.76,221.41-43.65,4-.94-2.55-5.5-3-5.84q-4.46-3.24-9.18-6.1a10.42,10.42,0,0,0-5.37-2.25c-38.72,8.51-77.44,17-116.37,24.53q-84.54,16.35-169.93,27.8c-46.27,6.17-92.69,11.3-139.26,14.61-34.58,2.46-69.24,4.33-103.91,4.29-11.8,0-23.7.06-35.46-1-4.12-.36-8.21-1-12.34-1.23q-7.42-.46-14.84-1.1a365,365,0,0,1-36.69-5c-6.16-1.15-12.45-2.88-18.43-4.52q-22.23-6.06-43.84-14.09c-13.68-5.11-27.14-10.8-40.25-17.2A372.12,372.12,0,0,1,127.67,337l1,.62L121,332.24l.91.66-7.14-5.57.86.71-6.13-5.5.79.78a143.14,143.14,0,0,1-12-13.26,29.94,29.94,0,0,1-3.74-5.52,39.18,39.18,0,0,1-4.13-8.36l.34,1-2-7.22.25,1.07-1.12-7.28.17,1.08a55.38,55.38,0,0,1,.56-12.27,68.17,68.17,0,0,1,3.21-11.88,97,97,0,0,1,5.4-11.89,89.68,89.68,0,0,1,6.94-10.12,219.61,219.61,0,0,1,19.43-22q6.84-6.7,13.61-13.48,8-7.78,16.53-14.93l-.93.71a238.87,238.87,0,0,1,20.43-13.8c5.93-3.53,12-6.87,18.06-10.13s12.05-6.38,18-9.63a180.1,180.1,0,0,0,20.42-12.34c7.95-5.79,15.14-12.23,20.66-20.44a53.59,53.59,0,0,0,8.39-34.75C256.94,69.43,246,53,231.4,41.86a125.36,125.36,0,0,0-36-18.72,143.11,143.11,0,0,0-25.28-5.86l-8.55-1.12a88.59,88.59,0,0,0-15.42-1.55c-4.05-.23.76,5.77,1.11,6.25q3.22,4.18,6.83,8.06A9.56,9.56,0,0,0,158.43,32.4Z"/><path class="cls-2" d="M147,27.68c5.57.2,11.14.44,16.7.75a86.23,86.23,0,0,1,12,2.38,82.75,82.75,0,0,1,11.32,3.39,106.19,106.19,0,0,1,13.86,6.21L200,40l7.11,4.16-.77-.49L213,48.17l-.75-.51a76.45,76.45,0,0,1,10.16,9A58.21,58.21,0,0,1,230,66.78c6.71,11.56,8.45,26.41,2.67,38.63a49.94,49.94,0,0,1-10.74,15.18c-7.91,7.48-17.57,13.36-27,18.62-19.62,11-40.5,19.66-58.93,32.74a201.54,201.54,0,0,0-24.19,20.84c-8.77,8.59-17.54,17.37-25.54,26.69-7,8.21-13.59,17-18,26.89a75.67,75.67,0,0,0-6.73,26.54,62.35,62.35,0,0,0,5.51,29.15c4.58,10.21,11.69,19.13,19.33,27.23a139.14,139.14,0,0,0,21.79,18.36c8.08,5.6,16.35,10.85,24.93,15.67,23,12.92,47.38,23.2,72.32,31.63q18.23,6.17,36.88,10.92a66.59,66.59,0,0,0,13.26,2.92l5.63.8c10.59,1.5,21.18,3,31.83,4,42.24,4,84.89,3.43,127.22,1.33,81.82-4.08,163.32-14.49,244.2-27.19s161.11-28.33,240.77-46.9c1.07-.25,2.35-1.72,2.13-2.88-.2-1-2.32-2.72-3.36-2.47q-142.56,33.27-287.64,53.94c-46.93,6.69-94,12.37-141.26,16.33-35,2.94-70.18,5-105.35,5.28-21.81.16-43.64-.28-65.4-1.92-13.08-1-26.05-2.6-39-4.41l-7.21-1a120.25,120.25,0,0,1-14.31-3.05q-23.64-6.09-46.6-14.38a437.38,437.38,0,0,1-43.29-18.3c-6-2.93-11.86-6-17.67-9.28-8.62-4.8-16.77-10.2-24.91-15.75l.71.49-7.8-6,.66.56-7.78-6.77.64.61-7.43-7.53.62.65a81.3,81.3,0,0,1-8-10.65,89.24,89.24,0,0,1-6.84-11.33l.38.91a74.49,74.49,0,0,1-4.74-15.3l.1,1.08c-.46-5.08-1-10.15-.59-15.27a65.88,65.88,0,0,1,2.58-13,92.09,92.09,0,0,1,13.59-27A209.77,209.77,0,0,1,109.47,209q16.14-16.19,33.42-31.13l-1.08.9c6.5-4.91,13.09-9.61,19.91-14.06,6.65-4.35,13.47-8.44,20.27-12.55,5-3,10-6,15.1-8.94,5.39-3.07,10.9-5.94,16-9.44,5.77-4,11.35-8.12,15.89-13.47,6.35-7.49,11.16-17.32,11.58-27.28.28-6.45-.08-12.78-2.34-18.94A55,55,0,0,0,233.11,63a67.69,67.69,0,0,0-13-15.14,97,97,0,0,0-25.8-16.11,121.4,121.4,0,0,0-18.83-6.31A92.56,92.56,0,0,0,163.33,23q-8.54-.09-17-1a2.84,2.84,0,0,0-2.51,2.55C143.88,25.69,145.83,27.63,147,27.68Z"/><path class="cls-2" d="M143.23,31.81c8,.69,15.93,1.3,23.81,2.68a110.93,110.93,0,0,1,26.09,8.18,98.52,98.52,0,0,1,18.74,10.9,61.15,61.15,0,0,1,7.79,6.5,62.41,62.41,0,0,1,8.23,9.69l-1.57-2.4L231,74.89l-1.42-2.56,3.8,7.8-1.25-2.71,2.92,8-2.14-7,2.89,19.65.33-9.26-.95,14.27,1.25-9.39L233.93,108l2.2-9.36-4.06,14.18,3.18-9.29-5.4,13.7,4.27-9.13-7.05,13.51,5.37-8.77-8.69,13,6.44-8.25-17.82,19.35,6.8-6.14-12.43,10,7.53-5.42-13.53,9.12,3.28-2.05q-8,4.91-16.24,9.24-6.92,3.65-13.84,7.28c-7.84,4.1-15.73,8.11-23.35,12.61a168.66,168.66,0,0,0-29,21.2c-7.53,6.95-14.74,14.26-21.87,21.62-12.92,13.32-25.82,27.64-32,45.48-3.88,11.21-5.32,23.2-2.73,34.9,1.61,7.29,4.83,13.86,8.72,20.17a123,123,0,0,0,9,11.84,119.53,119.53,0,0,0,11.58,12.23,185.17,185.17,0,0,0,21.78,17,299.14,299.14,0,0,0,34.12,19.87,455.56,455.56,0,0,0,63.79,26c15.12,4.89,30.43,9.39,46.12,12,8.35,1.37,16.71,2.61,25.12,3.56,13.64,1.54,27.37,2.34,41.07,3.11,19.66,1.1,39.44.88,59.12.42,26.74-.62,53.45-2.16,80.11-4.21,78.16-6,156-16.68,233.29-29.66,68-11.41,135.58-25.12,202.79-40.59a1.64,1.64,0,0,0,.9-1.9,4.57,4.57,0,0,0-2.73-2.52,49.54,49.54,0,0,0-6.15-2.94,4.6,4.6,0,0,0-3.67-.54c-26.43,5.91-52.87,11.78-79.41,17.21q-56.88,11.65-114.17,21.25c-75.61,12.69-151.8,23-228.27,28.78-46.84,3.55-94,5.94-141,4-6.8-.29-13.51-1.22-20.3-1.73s-13.86-1.13-20.77-1.9c-10.07-1.12-20-2.63-29.94-4.71a76.28,76.28,0,0,1-8.58-2.14c-4.8-1.59-9.65-2.91-14.5-4.34a418,418,0,0,1-68.72-26.8c-18.42-9.21-36.35-20-51.89-33.6-6.91-6-13.76-12.65-18.21-20.77-1.45-2.65-2.61-5.53-4-8.24A56.29,56.29,0,0,1,86,294.49c-2.9-11.11-1-22.82,3.33-33.3a100.68,100.68,0,0,1,8.14-15.4,111.74,111.74,0,0,1,9.6-12.25c3.54-4.09,7.28-8,11.09-11.87,6.32-6.34,13-12.38,19.47-18.54,5.27-5,10.73-10.19,16.4-14.77,3.2-2.58,6.57-5,9.91-7.4,15.77-11.34,32.41-21.58,47.13-34.31a133.59,133.59,0,0,0,13.22-12.84c3-3.41,6.5-7.49,8.52-11.47l3.37-8.1,1.7-4.61a63.64,63.64,0,0,0,1.86-6.37c.89-3.86.64-8.05.68-12l0-2.32a22.56,22.56,0,0,0-1.64-8.41,27.12,27.12,0,0,0-2.5-7.68,28.36,28.36,0,0,0-2.51-5c-8.1-14.45-21.85-24.9-36.55-32.06a123.46,123.46,0,0,0-29.6-10.07c-4.07-.81-8.16-1.45-12.28-1.95-2.71-.35-5.44-.65-8.16-.88q-6.51-.54-13-1.71c-.79-.12-1.8-.37-2.4.4-.93,1.19.32,2.55,1.1,3.35a40,40,0,0,0,5.19,4.35C139.71,30.44,141.19,31.64,143.23,31.81Z"/><path class="cls-2" d="M150.6,41.47l8.19.05-1.57-.12a158.46,158.46,0,0,1,24.21,3.84,108.65,108.65,0,0,1,21.64,8,92.68,92.68,0,0,1,18.05,11.47l5,4.47a61.19,61.19,0,0,1,8.17,9.71l-1.67-2.77,4.72,7.92-1.43-2.91,3.76,8.19-1.16-3,2.8,8.39-.87-3.14,1.82,8.51-.55-3.22.83,8.56-.21-3.25-.16,8.51.76-7.77-1.76,12.93,1.64-7.56-3.26,12.61,2.47-7.12-4.66,12,1.22-2.82-4,7.35,1.53-2.62-4.86,7,1.79-2.37-5.67,6.52,2-2.07L223,142.7l2.16-1.76a98,98,0,0,1-13.57,10q-6.31,3.84-12.9,7.18c-8.17,4.22-16.51,8.11-24.73,12.24-8.94,4.48-17.83,9.09-26.29,14.43a152.67,152.67,0,0,0-13.49,9.48q-6.52,5.29-12.49,11.2c-8.11,7.76-16.07,15.76-23.66,24q-5.82,6.27-11.08,13A115,115,0,0,0,77.5,256.6c-5.2,10.2-9.14,21.8-9.19,33.37a59.71,59.71,0,0,0,3.51,21.29C75.49,321.13,82,329.84,89,337.55c14.21,15.55,31.78,27.78,50,38.24a409.78,409.78,0,0,0,66.22,30.12c10.25,3.67,20.63,7,31.1,10q10.55,3,21.21,5.51c1.7.23,3.4.49,5.09.78,8.24,1.37,16.48,2.72,24.77,3.73,12.94,1.57,25.93,2.46,38.94,3.2,44.31,2.53,88.84.65,133.08-2.46,76.21-5.36,152.06-15.45,227.46-27.57,74.33-12,148.14-26.73,221.49-43.66a1.5,1.5,0,0,0,.71-2,5.51,5.51,0,0,0-3.38-2.36,61.18,61.18,0,0,0-7.21-2.57,5.5,5.5,0,0,0-4.11-.3c-49.74,11-99.56,21.52-149.71,30.49-65.78,11.78-131.92,21.81-198.37,29-46.89,5.08-94,8.88-141.1,10.35-17.86.55-35.74.78-53.6.39-6.72-.14-13.44-.34-20.16-.69s-13.48-1.39-20.25-1.95c-16.82-1.4-33.55-3.32-50-7.16a81,81,0,0,1-8.25-2.24c-3-1.05-6-2-9.14-2.89a431.88,431.88,0,0,1-54.08-19.36A383.59,383.59,0,0,1,146.37,362a261.66,261.66,0,0,1-21.85-14.72A135.47,135.47,0,0,1,106.88,332c-3.67-3.92-6.91-8.16-10.31-12.3a75,75,0,0,1-8.21-12.27,42.71,42.71,0,0,1-4.62-15.82l-.22-5.6A57.23,57.23,0,0,1,85,274.8l-.28,1.09,1.86-6.64-.33,1.08A84.9,84.9,0,0,1,91,258.82a106.61,106.61,0,0,1,8.86-13.19c6.71-8.69,14.41-16.51,22.12-24.3,9.64-9.73,19.19-19.58,30.43-27.51,9.25-6.54,19.16-12,29.07-17.5l-1.13.61c11.43-6.11,23-12,33.86-19.14,9.18-6,17.69-13.07,24.16-22a53.45,53.45,0,0,0,10.3-27.41,54.4,54.4,0,0,0-5.07-27c-8.18-17.61-24.38-29.94-41.7-37.84-20-9.14-42-12.15-63.78-13a1.45,1.45,0,0,0-1.18,1.75,6,6,0,0,0,2.87,3.24,68.24,68.24,0,0,0,6.7,4.51A6.06,6.06,0,0,0,150.6,41.47Z"/><path class="cls-2" d="M157.79,25.12A165.25,165.25,0,0,1,178.38,27,141.2,141.2,0,0,1,198,31.88l-1.19-.46,8.47,3.31-1.16-.49a138.74,138.74,0,0,1,13.52,6.92,87.58,87.58,0,0,1,14.21,10.78,66.2,66.2,0,0,1,8.8,10A27,27,0,0,1,244,67.26a37.4,37.4,0,0,1,3.73,8.31L247.3,74l1.9,7.26-.3-1.58,1,7.24-.18-1.55a41.5,41.5,0,0,1-5.79,25,63.64,63.64,0,0,1-20.07,20.25c-10.42,6.94-21.93,12-33.17,17.46C173.45,156.44,156,165,140.9,176.94c-8.75,6.94-16.56,15-24.42,22.88-8.11,8.14-16.2,16.36-23.29,25.42a123.72,123.72,0,0,0-10.27,15.12,80,80,0,0,0-7.58,19.17,63.48,63.48,0,0,0-1,28.49,67.45,67.45,0,0,0,8.91,21.66,128.15,128.15,0,0,0,22.85,25.67,214,214,0,0,0,31.3,21.86,415.07,415.07,0,0,0,65.27,30.54c10.14,3.77,20.41,7.17,30.77,10.31q10.47,3.13,21.08,5.8a74.05,74.05,0,0,0,13,2.9c19.83,3,39.69,5.22,59.73,6.31,9.34.51,18.67,1,28,1.17,10,.17,19.93.15,29.9,0,27.18-.37,54.33-1.74,81.45-3.69,76.09-5.46,151.86-15.49,227.15-27.72,74.29-12.06,148.06-26.84,221.39-43.78,3-.71.1-3.92-.8-4.84a55.73,55.73,0,0,0-5.47-4.58,4.89,4.89,0,0,0-3.55-1.54c-52.3,11.93-104.72,23.15-157.5,32.8-65.18,11.92-130.73,21.9-196.56,29.49-49.11,5.66-98.47,10.06-147.89,11.78-15.23.53-30.46.82-45.69.77-7.48,0-15-.09-22.42-.53l-18.41-1.13c-9.31-.55-18.61-1.23-27.88-2.25-6.35-.7-12.74-1.42-19.06-2.34-10.85-1.59-21.46-4.55-32-7.52a504.48,504.48,0,0,1-54.1-18.68c-17.89-7.33-35.59-15.8-51.93-26.17-12-7.62-23.44-16-33-26.62a79.16,79.16,0,0,1-13-19.2,32.55,32.55,0,0,1-3.33-10.12,46.67,46.67,0,0,1-1.41-10.53,63.42,63.42,0,0,1,3.07-19.67,117.72,117.72,0,0,1,8.31-18.43l-.55.92A128,128,0,0,1,101.85,227q5.41-6.58,11.29-12.74c7.65-8.11,15.67-15.94,23.82-23.55q6.07-5.84,12.6-11.15,6.42-5,13.25-9.45c8.92-5.85,18.24-11.08,27.64-16.11,12-6.45,24.63-12.09,36-19.67,7.4-4.94,14.83-10.77,19.54-18.46,5.25-8.57,9.11-17.93,8.9-28.17a58,58,0,0,0-10.4-32.1c-8.85-12.78-22.22-22.67-36.23-29.12a137.63,137.63,0,0,0-23.65-8.62c-10.79-2.75-21.89-3.74-32.93-5A1.66,1.66,0,0,0,150,14.11a4.35,4.35,0,0,0,1.1,3.44,45.1,45.1,0,0,0,3.83,5.4A4.35,4.35,0,0,0,157.79,25.12Z"/><path class="cls-2" d="M145.93,38.65l8,0-1.5-.07c8.13.8,16.26,1.65,24.18,3.8a123.64,123.64,0,0,1,18.23,6.43,94.55,94.55,0,0,1,15.95,8.81l5.55,4.14a71.38,71.38,0,0,1,9.43,9.13l-2-2.49,5.74,7.43-1.81-2.67,4.89,7.8L231,78.07l4,8.1-1.41-3,3.07,8.34-2.4-7.86,3.38,13.19-1.68-8.17-.23,25.3,2.78-9.76L227,131l4.81-7.35-8.55,11.44,5.67-6.68L219,139l2.55-2.55-7.78,6.8,2.82-2.2A121.06,121.06,0,0,1,202,150.86q-6.48,3.75-13.13,7.19c-7.56,4-15.23,7.72-22.82,11.64a239.39,239.39,0,0,0-28.33,16.77c-8.36,5.9-15.82,12.82-23.14,19.93-8.76,8.51-17.51,17.26-25.47,26.53a132.84,132.84,0,0,0-14.92,20.67,71.68,71.68,0,0,0-9.34,40.24c1.29,18,12.72,33.1,24.94,45.47,13.12,13.26,28.49,23.8,44.52,33.21,20.91,12.27,43.32,21.93,66.06,30.22C214,407.71,228,412,242,415.65a68.57,68.57,0,0,0,13.07,3c1.33.22,2.66.45,4,.69q12.78,2.3,25.69,3.83c13.3,1.57,26.65,2.35,40,3.18,19.16,1.19,38.42,1.1,57.61.73,26.2-.49,52.36-1.89,78.5-3.81,77.18-5.66,154-16,230.38-28.58,71.17-11.73,141.86-25.91,212.14-42.1a1.56,1.56,0,0,0,.74-2,4.92,4.92,0,0,0-3.1-2.33,55.61,55.61,0,0,0-6.73-2.53,4.94,4.94,0,0,0-3.87-.29c-44.25,9.82-88.55,19.31-133.12,27.55-60.26,11.14-120.81,20.8-181.64,28.27-46.48,5.7-93.07,10.23-139.82,12.84C402.18,416,368.44,417,334.73,415.8c-6.23-.22-12.49-.42-18.69-1.15-4.26-.51-8.48-1-12.76-1.36-9.22-.8-18.45-1.8-27.61-3.13-6.62-1-13.16-2.28-19.67-3.8a69.52,69.52,0,0,1-7.28-1.91c-1.79-.62-3.55-1.3-5.34-1.92l-10.29-3q-7.67-2.31-15.23-5c-8.33-2.87-16.6-5.92-24.73-9.32a352.17,352.17,0,0,1-45.21-22.35,225.14,225.14,0,0,1-33.08-23.61,97,97,0,0,1-13.59-14L97.67,320q-2.83-5.49-6.2-10.68l.57,1.05a92.31,92.31,0,0,1-4.68-10.81l.28,1.17a91.16,91.16,0,0,1-2.16-10.84,69.49,69.49,0,0,1,.28-10.1L85.54,281a84,84,0,0,1,2.6-11.4l-.39,1.14,2.31-6.23-.45,1.11,2.83-6.54L92,260.15A59.76,59.76,0,0,1,99,248.48a118.08,118.08,0,0,1,7.42-9.27c6.18-7.2,12.89-13.78,19.67-20.41,7.79-7.61,15.39-15.53,23.89-22.37a239.57,239.57,0,0,1,20.59-14.34c15.58-10,31.91-19.09,46-31.18,8.54-7.31,16.44-15.78,21.3-26a55.77,55.77,0,0,0,4.23-34.41C239.55,77,231.05,64.62,220.71,56A111.86,111.86,0,0,0,183,35.59c-15.88-5.13-32.44-6.72-49-7.44a1.48,1.48,0,0,0-1.16,1.75A5.58,5.58,0,0,0,135.51,33,61.83,61.83,0,0,0,142,37.33,5.6,5.6,0,0,0,145.93,38.65Z"/><path class="cls-2" d="M157,25.08l7.62-.56-.93.05c8.32.8,16.5,1.73,24.54,4.12a115.89,115.89,0,0,1,18.33,7.12,92.65,92.65,0,0,1,15.64,9.42l5.37,4.37a67.05,67.05,0,0,1,9,9.64l-.57-.81,4,6-.52-.82a47.58,47.58,0,0,1,4.77,10.83q5.17,18.51-5.06,34.16a41,41,0,0,1-10.62,12.31q-4.82,3.87-10,7.25c-10.38,6.77-21.85,11.79-33,17.15-7.37,3.55-14.7,7.17-21.88,11.1A189.75,189.75,0,0,0,136.37,174c-11,8.71-20.79,19-30.52,29-13.14,13.56-26.33,28.22-32.79,46.3-5.1,14.25-6.17,30-.86,44.42,2.76,7.49,7.42,14.69,12.34,20.91a146.8,146.8,0,0,0,26,24.93c19.84,15.23,42.17,27.08,65,37.16a484.47,484.47,0,0,0,76.91,26.39,64,64,0,0,0,13.26,2.9l5.62.79c3.36.48,6.71.93,10.06,1.38,12.76,1.72,25.52,3.07,38.37,3.9,44.31,2.85,88.91,1.34,133.16-1.63,80.3-5.39,160.23-16,239.62-29q111.43-18.22,221.4-44a2.72,2.72,0,0,0,1.36-1.61,2,2,0,0,0-.78-2.1c-1.13-1.37-3.16-3.32-5.08-2.88a3338.89,3338.89,0,0,1-330.64,60.14c-50.36,6.51-101,11.7-151.69,14.35-30.77,1.61-61.62,2.31-92.42,1.23-17.88-.63-35.62-2.15-53.35-4.46-5.11-.66-10.21-1.36-15.31-2a33.85,33.85,0,0,1-7.64-1.54q-8-1.83-15.81-4-13-3.61-25.84-7.88a440.75,440.75,0,0,1-53.35-21.45c-14.51-7.06-28.87-14.76-42.07-24.09a199,199,0,0,1-17.75-13.95,125.14,125.14,0,0,1-14.48-15.35A52.24,52.24,0,0,1,82.53,302a54.06,54.06,0,0,1-4.8-10.14l-1.8-7.15a42.76,42.76,0,0,1-.71-14.4l-.11.9,1-8.11L76,264a93.64,93.64,0,0,1,4.12-13.81,107.36,107.36,0,0,1,6.17-12.44c5.81-9.77,13.54-18.43,21.31-26.67s15.72-16,23.91-23.69q6.07-5.83,12.61-11.16,6.39-5,13.17-9.43a290.51,290.51,0,0,1,26.14-15.15c8.18-4.24,16.53-8.11,24.7-12.35a147.76,147.76,0,0,0,17.29-10.21c5.16-3.61,10.52-7.62,14.19-12.82,5.41-7.67,10.25-16.41,10.72-26a55.81,55.81,0,0,0-.58-12.78,49.72,49.72,0,0,0-7.09-18c-7.79-12.1-19.08-21.18-31.71-27.94a116.49,116.49,0,0,0-31.1-11.33,119.75,119.75,0,0,0-17.08-2.26q-4,.16-7.93.63a3.13,3.13,0,0,0-1.7,1.24,1.7,1.7,0,0,0,.09,2C153.86,23.24,155.2,25.21,157,25.08Z"/><path class="cls-2" d="M144.31,31.6c8.35.29,16.55.32,24.74,2.16l7.75,1.93A109.41,109.41,0,0,1,191.37,41l-.87-.4,7.61,3.71-.86-.43a95.52,95.52,0,0,1,12.21,7.68,76.78,76.78,0,0,1,10.16,9,53.21,53.21,0,0,1,11.65,18.8q4.72,14.08-.49,26.77l.62-1.34q-2.28,4.77-4.66,9.49a41.65,41.65,0,0,1-5.65,7.55c-12.23,13.42-29.09,22-45.12,30-14.86,7.48-29.71,15.07-43.32,24.7-8.35,5.9-15.8,12.83-23.11,20C100.75,205,92,213.86,84,223.18c-7,8.14-13.68,16.92-17.88,26.85a82.91,82.91,0,0,0-5.87,19.48,62.22,62.22,0,0,0,2.1,28.62c2.46,7.6,6.52,14.42,11.08,20.91,12.3,17.5,29.78,31.15,47.84,42.25a389.86,389.86,0,0,0,66.14,32c10.21,3.86,20.56,7.31,31,10.5q10.54,3.2,21.23,5.9a66,66,0,0,0,13.27,2.93c7.83,1.08,15.65,2.28,23.5,3.29,12.23,1.56,24.55,2.53,36.86,3.21,46.62,2.61,93.47.8,140-2.58C529.58,411,605.54,400.82,681,388.53q111.5-18.16,221.52-43.84a3,3,0,0,0,1.87-3.06c-.29-1-2.46-2.39-3.52-2.14Q753.8,373.77,604.06,394.64c-50.36,7.05-101,12.9-151.7,16.49-32.91,2.33-65.9,3.84-98.9,3.65-21.08-.13-42.19-.9-63.16-3-11.9-1.2-23.71-2.94-35.54-4.69A126,126,0,0,1,240.47,404q-10.54-2.74-21-5.9a421.7,421.7,0,0,1-50.24-18.63c-15.73-7-31.32-15-45.7-24.5-5.47-3.62-10.82-7.42-16-11.47A119.19,119.19,0,0,1,97,334.14a81.41,81.41,0,0,1-9.89-10.61l.69.78-4.86-7.07.54.92A125.82,125.82,0,0,1,75.29,303a53,53,0,0,1-3.57-16.75,63.35,63.35,0,0,1,4.8-27.78,103.51,103.51,0,0,1,13.42-23.39c7.43-9.91,16.35-18.87,25.32-27.37,10.92-10.35,21.5-21.11,33.65-30,9.51-7,19.55-13.21,29.53-19.49,9.24-5.8,18.34-11.8,27.43-17.83,5.13-3.4,10.53-6.89,15-11.16a58.23,58.23,0,0,0,7.53-8.32,62.26,62.26,0,0,0,7.2-13.55c4.12-10.69,2.95-24.22-2.07-34.45a64.71,64.71,0,0,0-9.5-14.36A84.5,84.5,0,0,0,202,41a112.67,112.67,0,0,0-18.3-8.43,119.65,119.65,0,0,0-19.56-5,30.15,30.15,0,0,0-8-.85q-6.57-.16-13.11-.77c-1.15-.08-2.46,1.7-2.28,2.75S143.13,31.55,144.31,31.6Z"/><path class="cls-2" d="M78.73,159.62c19-1.89,38-3.63,57-4.91s38.38-2.11,57.61-2.76q1.66-.16,1.14-1.77A11.49,11.49,0,0,0,190,146q-4.76-3.34-9.77-6.28a11.39,11.39,0,0,0-5.66-2.35c-19.33.84-38.63,1.8-57.93,3.3l-19.23,1.57q-18.33,1.09-36.65,2.35c-1.11.09-1.51.66-1.2,1.73a11.06,11.06,0,0,0,4.25,4.28q4.56,3.47,9.4,6.53A11.09,11.09,0,0,0,78.73,159.62Z"/><path class="cls-2" d="M81.94,151.89c18.88-2,37.78-3.76,56.73-5,19.19-1.29,38.39-2.1,57.61-2.73a1.35,1.35,0,0,0,1.37-1.6,7.15,7.15,0,0,0-2.82-3.86,86.06,86.06,0,0,0-6.81-5.85,7.21,7.21,0,0,0-4.24-2.2c-19.36.73-38.7,1.54-58,3q-27.9,2.1-55.79,4.06c-3.71.26.7,5,1.22,5.56a87.93,87.93,0,0,0,6.58,6.22A7.33,7.33,0,0,0,81.94,151.89Z"/><path class="cls-2" d="M83.64,158.06c18.94-2,37.89-3.76,56.9-5,19.19-1.29,38.38-2.11,57.6-2.76,4.86-.16-4-7.08-3.72-6.81q-5.28-4.31-10.86-8.21a15.48,15.48,0,0,0-6.31-3.4c-19.4.85-38.76,1.86-58.13,3.33L99.9,136.7q-18.14.84-36.23,2.17c-4.69.31,3.35,6.9,3.39,6.94q5.09,4.5,10.46,8.62A15.07,15.07,0,0,0,83.64,158.06Z"/><path class="cls-2" d="M90.8,166c19-1.91,38.08-3.73,57.16-5s38.35-2.07,57.56-2.69a1.34,1.34,0,0,0,1.18-1.74,7.33,7.33,0,0,0-3.29-3.54,86.56,86.56,0,0,0-7.5-5.08,7.35,7.35,0,0,0-4.5-1.73c-19.34.79-38.64,1.7-57.94,3.17q-27.87,2.13-55.77,4a1.36,1.36,0,0,0-1.27,1.68,7,7,0,0,0,3,3.65,81.64,81.64,0,0,0,7,5.35A7,7,0,0,0,90.8,166Z"/><path class="cls-2" d="M90.51,159.26c19-1.93,38-3.68,57-4.95,19.18-1.28,38.37-2.09,57.58-2.72,4.24-.14-2.07-6-2.21-6.08q-4-3.69-8.24-7a10.06,10.06,0,0,0-5-2.82c-19.4.78-38.77,1.7-58.13,3.14l-19.24,1.49q-18,1-36,2.22c-4,.26,1.31,5.65,1.78,6.17q3.67,3.9,7.7,7.47A10,10,0,0,0,90.51,159.26Z"/><path class="cls-2" d="M79.36,154.23c19.07-2,38.12-4.1,57.27-5.36s38.3-2,57.49-2.62a3,3,0,0,0,2.4-2.65,4.07,4.07,0,0,0-3-2.76c-19.22.6-38.42,1.27-57.61,2.63s-38.39,3.37-57.58,5.13A2.87,2.87,0,0,0,76,151.32C76.11,152.38,78.25,154.34,79.36,154.23Z"/><path class="cls-2" d="M75.16,158.54q14.6-.57,29.14-2,14.34-1.27,28.69-2.3c19.17-1.29,38.35-2.1,57.55-2.73a1.59,1.59,0,0,0,1.09-1.8,4.79,4.79,0,0,0-2.56-2.83,52.1,52.1,0,0,0-6-3.65,4.78,4.78,0,0,0-3.69-1c-16.05.62-32.08,1.33-48.1,2.4s-31.79,2.46-47.67,3.73l1.39,0-20.88.27a1.55,1.55,0,0,0-1.16,1.75,5,5,0,0,0,2.51,3,54.92,54.92,0,0,0,6,4A5,5,0,0,0,75.16,158.54Z"/><path class="cls-2" d="M82.86,168.3c19-2,37.89-3.67,56.91-5.13l-1.54.1L158.94,162l-1.54.09,20.73-1-1.55.07,20.74-.7a1.44,1.44,0,0,0,.94-1.88,6,6,0,0,0-3.27-2.85,67.81,67.81,0,0,0-7.24-3.61,6,6,0,0,0-4.24-.9c-16,.66-32.06,1.42-48.08,2.52-21.87,1.51-43.73,3.38-65.59,5.08a1.49,1.49,0,0,0-1,1.85,5.75,5.75,0,0,0,3,2.91,65.31,65.31,0,0,0,6.88,3.73A5.72,5.72,0,0,0,82.86,168.3Z"/><path class="cls-2" d="M89.9,151.91c18.94-1.88,37.9-3.67,56.89-4.93,19.18-1.27,38.38-2.06,57.6-2.68a1.63,1.63,0,0,0,1.5-1.47,4.47,4.47,0,0,0-1.65-3.26,48.62,48.62,0,0,0-4.7-4.82,4.43,4.43,0,0,0-3.22-1.74c-19.36.64-38.71,1.36-58,2.77-18.62,1.36-37.23,2.88-55.88,4a1.6,1.6,0,0,0-1.6,1.35,4.63,4.63,0,0,0,1.48,3.46,50.31,50.31,0,0,0,4.47,5.3A4.7,4.7,0,0,0,89.9,151.91Z"/><path class="cls-2" d="M78,165.38c18.43-1.93,36.88-3.69,55.38-4.94,19.16-1.3,38.33-2.12,57.53-2.77a1.8,1.8,0,0,0,1.62-3.2,32.36,32.36,0,0,0-5.57-3.34,31.72,31.72,0,0,0-6-2.5c-16,.64-32,1.37-48,2.45-16.4,1.11-32.78,2.54-49.16,3.83l1.46-.11-19.65,1.34a1.53,1.53,0,0,0-1,1.85,5.38,5.38,0,0,0,2.9,2.84,60.27,60.27,0,0,0,6.6,3.62A5.31,5.31,0,0,0,78,165.38Z"/><path class="cls-2" d="M89.22,151.51l17.92-2.67-1,.12c16-1.4,31.95-2.74,48-3.7s32-1.54,48-2c1.3,0,2.77-1,2.56-2.5a7.18,7.18,0,0,0-1.75-2.47,7.26,7.26,0,0,0-2.42-1.8c-22.51.67-45,1.61-67.43,3.3q-14.43,1-28.83,2.38-9,1-17.93,2.74a3,3,0,0,0-1.6,1.37,1.79,1.79,0,0,0,.31,2C85.83,149.7,87.42,151.77,89.22,151.51Z"/><path class="cls-2" d="M76.68,158.12c19.07-2.05,38.12-4.09,57.26-5.35s38.31-2,57.49-2.61c1.09,0,2.35-1.82,2.16-2.85s-2.21-2.57-3.33-2.53c-19.21.6-38.4,1.29-57.58,2.65s-38.39,3.36-57.58,5.16A2.8,2.8,0,0,0,73,155.5,4.75,4.75,0,0,0,76.68,158.12Z"/><path class="cls-2" d="M106.34,117.44l17.07-1.29q13-.74,26-.93c14.47-.32,28.86,0,43.33.55,1.12-.07,1.53-.64,1.22-1.72a11.54,11.54,0,0,0-4.32-4.37q-4.63-3.56-9.53-6.7a11.52,11.52,0,0,0-5.58-2.59c-14.62-.23-29.21-.29-43.83.22-14,.48-28.07.86-42.11,1.49q-1.66.11-1.23,1.71a11.13,11.13,0,0,0,4.2,4.36q4.51,3.54,9.31,6.69A11.23,11.23,0,0,0,106.34,117.44Z"/><path class="cls-2" d="M109.53,109.71l16.86-1.37q13-.75,26-1c14.48-.33,28.86,0,43.34.58a1.36,1.36,0,0,0,1.43-1.54,7.06,7.06,0,0,0-2.64-4A81.18,81.18,0,0,0,188,96.41a7.13,7.13,0,0,0-4.13-2.36c-14.67-.4-29.29-.63-44-.2q-21,.62-42.06,1.51c-3.73.17.64,5,1.13,5.56a83.46,83.46,0,0,0,6.46,6.3A7.31,7.31,0,0,0,109.53,109.71Z"/><path class="cls-2" d="M111.25,115.88l17-1.43q13-.74,26-.92c14.48-.31,28.86,0,43.33.56,4.91.18-3.84-7.35-3.41-7q-5.09-4.51-10.48-8.66a15.37,15.37,0,0,0-6.14-3.65c-14.72-.22-29.4-.25-44.11.22q-8.61.33-17.22.44-12.28.1-24.55.88c-4.7.21,3.26,7,3.28,7q5,4.58,10.3,8.79A15.17,15.17,0,0,0,111.25,115.88Z"/><path class="cls-2" d="M118.38,123.84c14.39-1.1,28.75-2,43.18-2.28s28.81.09,43.25.65a1.34,1.34,0,0,0,1.27-1.68,7.26,7.26,0,0,0-3.09-3.7,84.63,84.63,0,0,0-7.21-5.45,7.24,7.24,0,0,0-4.41-2c-14.63-.31-29.22-.45-43.85,0-14,.44-28,.89-42,1.56a1.36,1.36,0,0,0-1.31,1.65,7,7,0,0,0,2.93,3.71,83.2,83.2,0,0,0,6.94,5.49A7.09,7.09,0,0,0,118.38,123.84Z"/><path class="cls-2" d="M118.11,117.09l17.06-1.32q13-.75,26-.93c14.46-.3,28.83.06,43.28.6,4.26.16-1.81-6.08-1.87-6.15q-3.77-3.86-7.84-7.36a9.88,9.88,0,0,0-4.81-3c-14.72-.33-29.39-.48-44.11-.06-13.87.39-27.71.69-41.57,1.29-4,.18,1.2,5.69,1.65,6.2q3.6,4,7.54,7.59A9.84,9.84,0,0,0,118.11,117.09Z"/><path class="cls-2" d="M106.9,112.12c14.41-1.18,28.8-2.3,43.27-2.58s28.74.15,43.15.75a3,3,0,0,0,2.47-2.59,4.06,4.06,0,0,0-3-2.82c-14.45-.6-28.85-1-43.32-.74s-29.07,1.4-43.6,2.35a2.85,2.85,0,0,0-2.37,2.69C103.68,110.24,105.78,112.21,106.9,112.12Z"/><path class="cls-2" d="M102.78,116.4c17.51-.58,35-1.4,52.51-1.79h-1.4l18.72.13-1.41,0,17.26.62c.81,0,1.78.2,2.32-.61.82-1.24-.45-2.47-1.28-3.21a37,37,0,0,0-5.34-3.81,13.45,13.45,0,0,0-2.65-1.47,3.28,3.28,0,0,0-2.54-.58c-8.7-.23-17.37-.43-26.08-.41-14.44,0-28.86.71-43.29,1.33H111l-19.17-.23a1.55,1.55,0,0,0-1.19,1.73,5,5,0,0,0,2.48,3,52.82,52.82,0,0,0,6,4.09A5,5,0,0,0,102.78,116.4Z"/><path class="cls-2" d="M110.42,126.14q17.1-1.74,34.27-2.22l-1.55.06q13-.56,26-.34,13,0,25.9.67a1.79,1.79,0,1,0,1.74-3.12,50.52,50.52,0,0,0-12.12-6.76c-12.21-.26-24.13-.54-36.34-.24-17,.42-33.91,1.25-50.85,2.2a1.47,1.47,0,0,0-1,1.83,5.77,5.77,0,0,0,3,3,65.11,65.11,0,0,0,6.85,3.88A5.8,5.8,0,0,0,110.42,126.14Z"/><path class="cls-2" d="M117.48,109.74c14.32-1,28.61-1.88,43-2.18s28.85.09,43.32.66a1.66,1.66,0,0,0,1.57-1.4,4.27,4.27,0,0,0-1.46-3.28,45.71,45.71,0,0,0-4.39-4.94,4.28,4.28,0,0,0-3.09-1.83c-14.67-.53-29.3-.9-44-.55-14.06.34-28.12.9-42.18,1.32a1.62,1.62,0,0,0-1.63,1.33,4.6,4.6,0,0,0,1.41,3.46,48.48,48.48,0,0,0,4.36,5.33A4.56,4.56,0,0,0,117.48,109.74Z"/><path class="cls-2" d="M105.58,123.24l16.83-1.39-1.47.08q17.33-1,34.69-1.2t34.55.72a1.79,1.79,0,0,0,1.75-3.12,44.81,44.81,0,0,0-11.43-6.4c-14.49-.33-28.94-.5-43.44,0s-29.23,1.17-43.84,1.85a1.51,1.51,0,0,0-1,1.83,5.36,5.36,0,0,0,2.87,2.9,59.21,59.21,0,0,0,6.57,3.75A5.41,5.41,0,0,0,105.58,123.24Z"/><path class="cls-2" d="M116.81,109.45l16.22-2.1-.95.09q17.38-1,34.81-1.13t34.61.93a2.43,2.43,0,0,0,2.66-2.39,9.07,9.07,0,0,0-3.88-4.33c-17.48-.75-34.88-1.29-52.39-.66l-17.5.78q-8.17.8-16.27,2.25a3.06,3.06,0,0,0-1.62,1.34,1.76,1.76,0,0,0,.25,2C113.51,107.68,115,109.69,116.81,109.45Z"/><path class="cls-2" d="M104.23,116c14.41-1.19,28.78-2.3,43.25-2.57s28.74.15,43.15.75c1.09,0,2.39-1.79,2.24-2.79-.19-1.18-2.15-2.58-3.28-2.63-14.44-.58-28.83-1-43.29-.7s-29.06,1.4-43.59,2.38a2.81,2.81,0,0,0-2.12,2.88A4.78,4.78,0,0,0,104.23,116Z"/><path class="cls-2" d="M114.88,276.42c20-1.22,40-1.89,60-2.14,1.12-.08,1.52-.65,1.2-1.73a11.42,11.42,0,0,0-4.33-4.34q-4.63-3.52-9.54-6.65a11.5,11.5,0,0,0-5.58-2.55q-29.61.74-59.21,1.67c-1.12,0-1.54.6-1.27,1.68a11.25,11.25,0,0,0,4.12,4.46q4.45,3.63,9.19,6.9A11.26,11.26,0,0,0,114.88,276.42Z"/><path class="cls-2" d="M118,268.69c19.93-1.32,39.82-2,59.79-2.22a1.35,1.35,0,0,0,1.43-1.54A7.12,7.12,0,0,0,176.6,261a85.15,85.15,0,0,0-6.55-6.05,7.13,7.13,0,0,0-4.14-2.35c-19.76.36-39.51,1-59.26,1.59-3.72.1.52,5,1,5.57a86.6,86.6,0,0,0,6.32,6.39A7.27,7.27,0,0,0,118,268.69Z"/><path class="cls-2" d="M119.78,274.86q14.83-1.29,29.72-1.63,15.08-.57,30.15-.63c4.82-.06-3.66-7.15-3.43-7q-5.11-4.48-10.52-8.61a15.18,15.18,0,0,0-6.15-3.63q-15.23.3-30.43.91-14.27,0-28.52.6c-4.68.15,3.06,7,3.11,7.07q4.89,4.68,10.1,9A15.13,15.13,0,0,0,119.78,274.86Z"/><path class="cls-2" d="M126.87,282.86c20-1.23,40-1.93,60.08-2.16a1.33,1.33,0,0,0,1.26-1.68,7.3,7.3,0,0,0-3.1-3.69,88.3,88.3,0,0,0-7.23-5.41,7.31,7.31,0,0,0-4.41-1.93c-19.71.42-39.41,1-59.11,1.68a1.36,1.36,0,0,0-1.35,1.61,7,7,0,0,0,2.83,3.79,80.21,80.21,0,0,0,6.8,5.68A7,7,0,0,0,126.87,282.86Z"/><path class="cls-2" d="M126.62,276.09c20-1.25,39.93-1.91,59.95-2.15,4.18-.05-1.67-5.91-1.9-6.15q-3.76-3.85-7.86-7.35a9.87,9.87,0,0,0-4.83-3q-29.39.6-58.77,1.44c-4,.13,1,5.66,1.48,6.22q3.5,4,7.33,7.74A9.74,9.74,0,0,0,126.62,276.09Z"/><path class="cls-2" d="M115.34,271.2q15-1.08,30-1.85,15-.57,30.07-.58a3,3,0,0,0,2.45-2.6,4.06,4.06,0,0,0-3-2.81q-15.08,0-30.14.58-15.16,1-30.34,1.61A2.86,2.86,0,0,0,112,268.2C112.16,269.27,114.22,271.27,115.34,271.2Z"/><path class="cls-2" d="M111.34,275.43c20.24-.31,40.44-1.29,60.69-1.53a1.59,1.59,0,0,0,1.15-1.76,4.79,4.79,0,0,0-2.47-2.92,51.33,51.33,0,0,0-5.91-3.87,4.8,4.8,0,0,0-3.66-1.09c-15,.29-30.06.85-45.09,1.42l1.39,0-16.92-.57a1.56,1.56,0,0,0-1.22,1.72,5,5,0,0,0,2.43,3.07,55.56,55.56,0,0,0,5.91,4.21A5,5,0,0,0,111.34,275.43Z"/><path class="cls-2" d="M118.89,285.15c20-1.38,39.86-2.07,59.86-2.3a1.44,1.44,0,0,0,1-1.85,6,6,0,0,0-3.17-3,69.3,69.3,0,0,0-7.12-3.91,6.06,6.06,0,0,0-4.22-1.07c-19.73.45-39.45,1.19-59.17,2a1.47,1.47,0,0,0-1.08,1.81,5.84,5.84,0,0,0,3,3,66.91,66.91,0,0,0,6.81,4.07A5.86,5.86,0,0,0,118.89,285.15Z"/><path class="cls-2" d="M126,268.75c20-1.1,39.93-1.83,59.94-2a1.67,1.67,0,0,0,1.57-1.4A4.34,4.34,0,0,0,186,262a45.9,45.9,0,0,0-4.41-4.94,4.36,4.36,0,0,0-3.11-1.84c-19.82.24-39.61,1.11-59.43,1.27a1.64,1.64,0,0,0-1.66,1.29,4.58,4.58,0,0,0,1.32,3.47,48.54,48.54,0,0,0,4.21,5.37A4.58,4.58,0,0,0,126,268.75Z"/><path class="cls-2" d="M114.1,282.27q14.78-1.26,29.6-1.67l-1.48,0,16.56-.51-1.49,0,15.05-.2c.81,0,1.89.14,2.38-.74.74-1.35-.84-2.54-1.74-3.2a43.49,43.49,0,0,0-6.09-3.63,16.17,16.17,0,0,0-3-1.36,3.73,3.73,0,0,0-2.75-.47c-19.79.42-39.56,1.25-59.34,1.91a1.5,1.5,0,0,0-1.08,1.8,5.46,5.46,0,0,0,2.84,3,60.08,60.08,0,0,0,6.54,3.91A5.46,5.46,0,0,0,114.1,282.27Z"/><path class="cls-2" d="M125.32,268.6l14-1.76-.94.07c15.11-.64,30.16-1.06,45.29-1.2,1.29,0,2.8-.88,2.66-2.4a9.25,9.25,0,0,0-3.9-4.33c-12.63.11-25.25.34-37.88.86-10.46.42-9.11.46-21.68,2.28a3.09,3.09,0,0,0-1.64,1.31,1.71,1.71,0,0,0,.19,2C122.11,266.84,123.56,268.82,125.32,268.6Z"/><path class="cls-2" d="M112.67,275.1q15-1.11,30-1.84,15-.57,30.07-.58c1.09,0,2.39-1.78,2.22-2.81s-2.18-2.61-3.29-2.6q-15.07,0-30.13.6-15.16.93-30.33,1.64a2.81,2.81,0,0,0-2.17,2.85A4.77,4.77,0,0,0,112.67,275.1Z"/><path class="cls-2" d="M104.52,314.46q37.71-.72,75.4-.15c1.12-.05,1.53-.61,1.24-1.7a11.57,11.57,0,0,0-4.26-4.47q-4.58-3.64-9.43-6.91a11.58,11.58,0,0,0-5.55-2.71q-19-.19-38,0-18.1-.35-36.23-.58c-1.12,0-1.56.53-1.34,1.63a11.38,11.38,0,0,0,4,4.65q4.32,3.84,8.93,7.33A11.35,11.35,0,0,0,104.52,314.46Z"/><path class="cls-2" d="M107.6,306.71q37.64-.69,75.24-.16a1.35,1.35,0,0,0,1.45-1.52,7,7,0,0,0-2.56-4,84.34,84.34,0,0,0-6.39-6.15,7.06,7.06,0,0,0-4.08-2.4c-24.78-.25-49.56-.19-74.34-.64-3.71-.07.3,5,.75,5.57a83.39,83.39,0,0,0,6,6.59A7.07,7.07,0,0,0,107.6,306.71Z"/><path class="cls-2" d="M109.41,312.89c25.1-.66,50.18-.61,75.28-.27,4.83.06-3.48-7.25-3.26-7q-5-4.62-10.3-8.87a15.15,15.15,0,0,0-6.06-3.77q-19-.18-38.07-.1-17.9-.59-35.81-.73c-4.67-.06,2.73,7.13,2.78,7.2q4.66,4.89,9.66,9.44A15.16,15.16,0,0,0,109.41,312.89Z"/><path class="cls-2" d="M116.41,321q37.78-.74,75.53-.2a1.34,1.34,0,0,0,1.31-1.65,7.39,7.39,0,0,0-3-3.78,87.12,87.12,0,0,0-7.1-5.62,7.34,7.34,0,0,0-4.37-2.07q-19-.24-38-.11-18-.27-36.09-.45a1.36,1.36,0,0,0-1.43,1.54,7.05,7.05,0,0,0,2.61,3.94,86.06,86.06,0,0,0,6.48,6.05A7.12,7.12,0,0,0,116.41,321Z"/><path class="cls-2" d="M116.21,314.17c25.13-.5,50.23-.51,75.36-.16,4.18.06-1.52-5.94-1.73-6.17q-3.66-3.91-7.65-7.49a9.86,9.86,0,0,0-4.74-3.11q-19-.25-38.08-.17-17.79-.45-35.57-.65c-4-.05.67,5.64,1.14,6.26q3.25,4.17,6.87,8A9.67,9.67,0,0,0,116.21,314.17Z"/><path class="cls-2" d="M104.76,309.43q18.92-.54,37.84-.83,18.92-.11,37.82.3a3,3,0,0,0,2.53-2.52,4.06,4.06,0,0,0-2.89-2.9q-18.93-.41-37.86-.3-19,.49-38.11.59a2.84,2.84,0,0,0-2.5,2.56C101.67,307.4,103.64,309.46,104.76,309.43Z"/><path class="cls-2" d="M101,313.57c25.32.36,50.63.05,76,.4a1.58,1.58,0,0,0,1.19-1.74,4.91,4.91,0,0,0-2.45-3,54.08,54.08,0,0,0-5.91-4,4.93,4.93,0,0,0-3.68-1.19c-18.88-.17-37.74-.08-56.62-.09l1.41.07-20.38-1.2a1.54,1.54,0,0,0-1.29,1.66,5.08,5.08,0,0,0,2.33,3.19,54.32,54.32,0,0,0,5.78,4.47A5,5,0,0,0,101,313.57Z"/><path class="cls-2" d="M108.4,323.23c25.12-.62,50.2-.67,75.33-.32a1.42,1.42,0,0,0,1.06-1.82,6.3,6.3,0,0,0-3.16-3.11,73.61,73.61,0,0,0-7.13-4.16,6.23,6.23,0,0,0-4.26-1.22c-24.79-.18-49.58-.12-74.36-.22a1.44,1.44,0,0,0-1.17,1.75,6,6,0,0,0,2.88,3.23,69.81,69.81,0,0,0,6.71,4.47A6.06,6.06,0,0,0,108.4,323.23Z"/><path class="cls-2" d="M115.58,306.89c25.12-.28,50.22-.4,75.34,0a1.69,1.69,0,0,0,1.59-1.38,4.22,4.22,0,0,0-1.38-3.27,44.54,44.54,0,0,0-4.26-4.94,4.24,4.24,0,0,0-3-1.84q-19.05-.39-38.11-.25-18.15.21-36.29-.5a1.66,1.66,0,0,0-1.71,1.23,4.32,4.32,0,0,0,1.11,3.43,45.56,45.56,0,0,0,3.86,5.39A4.32,4.32,0,0,0,115.58,306.89Z"/><path class="cls-2" d="M103.71,320.41q13.88-.62,27.76-.6,14.19-.12,28.4-.06h-1.5l20.42.27a1.48,1.48,0,0,0,1.06-1.82,5.69,5.69,0,0,0-2.95-3,63.12,63.12,0,0,0-6.75-3.93,5.69,5.69,0,0,0-4.06-1.1q-19-.26-37.93-.05h1.51q-19,0-38-.16a1.48,1.48,0,0,0-1.16,1.75,5.61,5.61,0,0,0,2.76,3.13,62.68,62.68,0,0,0,6.47,4.25A5.54,5.54,0,0,0,103.71,320.41Z"/><path class="cls-2" d="M114.76,306.83a352.76,352.76,0,0,1,36.05-1.25q19-.09,37.9.32c1.27,0,2.81-.81,2.73-2.31a6.52,6.52,0,0,0-1.47-2.48,6.6,6.6,0,0,0-2.2-1.87q-19-.42-38.05-.34a315.3,315.3,0,0,0-37.13,1.41,3.13,3.13,0,0,0-1.7,1.24,1.69,1.69,0,0,0,.11,2C111.66,305,113,306.94,114.76,306.83Z"/><path class="cls-2" d="M102.11,313.35q18.9-.6,37.8-.85,18.92-.09,37.81.31c1.1,0,2.45-1.69,2.31-2.73s-2.11-2.71-3.23-2.72q-18.93-.41-37.86-.3-19,.45-38.08.63a2.8,2.8,0,0,0-2.27,2.77A4.83,4.83,0,0,0,102.11,313.35Z"/></g><g id="Layer_4" data-name="Layer 4"><ellipse class="cls-3" cx="911.28" cy="105.6" rx="31.59" ry="34.72"/><ellipse class="cls-4" cx="911.28" cy="242.61" rx="31.59" ry="82.45"/><ellipse class="cls-5" cx="911.28" cy="105.6" rx="31.59" ry="34.72"/><path class="cls-6" d="M907,74.89l1.87,61.41c.06,1.93,3.06,1.94,3,0L910,74.89c-.06-1.92-3.06-1.93-3,0Z"/><path class="cls-3" d="M885.6,239c9.54-.76,19.16-1.23,28.67-2.13,6.37-.6,13-2,19.32-.74a12.16,12.16,0,0,1,7.58,4.59c-.25-44.62-13.53-80.59-29.89-80.59s-29.79,36.38-29.88,81.36A5.42,5.42,0,0,1,885.6,239Z"/><path class="cls-7" d="M879.39,241s30.19-5.79,45.49-5.74c6.21,0,17.44,5.65,17.58,7.38"/><path class="cls-8" d="M879.79,242.41c6.42-1.23,12.88-2.28,19.34-3.23,5.24-.77,10.5-1.45,15.77-1.93,4.59-.41,9.5-1.06,14,.1a39.86,39.86,0,0,1,8.17,3.14,23.57,23.57,0,0,1,3,1.78,5.83,5.83,0,0,1,.79.64s.33.38.09.07c.24.31,0-.1,0,0,.3,1.9,3.2,1.1,2.9-.8-.24-1.49-2.28-2.59-3.42-3.27a41.42,41.42,0,0,0-7.11-3.32,28,28,0,0,0-7.75-1.86,53.72,53.72,0,0,0-7.06.2,312.79,312.79,0,0,0-31.83,4.17q-3.88.66-7.75,1.39c-1.89.36-1.09,3.25.8,2.89Z"/></g><g id="Layer_2" data-name="Layer 2"><text class="cls-9" transform="translate(193.5 319.39) scale(0.79 1)"><tspan class="cls-10">D</tspan><tspan class="cls-11" x="235.45" y="0">e</tspan><tspan class="cls-12" x="440.41" y="0">p</tspan><tspan class="cls-13" x="640.16" y="0">L nk</tspan></text></g></svg>